<svg xmlns="http://www.w3.org/2000/svg" aria-hidden="true" style="position:absolute;width:0;height:0;overflow:hidden"><defs><symbol id="icon-smartphne" viewBox="0 0 32 32"><path stroke-linecap="round" stroke-linejoin="round" stroke-width="2" d="M22.667 2.667H9.334a2.667 2.667 0 0 0-2.667 2.667v21.333a2.667 2.667 0 0 0 2.667 2.667h13.333a2.667 2.667 0 0 0 2.667-2.667V5.334a2.667 2.667 0 0 0-2.667-2.667zM16 24h.013"/></symbol><symbol id="icon-logo-btm" viewBox="0 0 154 32"><path fill="#44c697" d="M13.582 12.582H37.71V9.177H13.582V3.432H37.71V.027H11.724a1.57 1.57 0 0 0-1.57 1.56v16.767h3.428v-5.771z" style="fill:var(--color1, #44c697)"/><path fill="#fff" d="M41.636 0h-1.884v18.327h3.428V1.56C43.206.702 42.5 0 41.636 0z" style="fill:var(--color2, #fff)"/><path fill="#fff" d="M45.901 11.932v9.098H7.432v-9.098H1.963A1.954 1.954 0 0 0 0 13.882v5.173c0 1.092.89 1.95 1.963 1.95h1.256l.55 6.395v4.601h1.413L6.831 27.4h39.673l1.649 4.601h1.413V27.4l.55-6.395h1.256a1.954 1.954 0 0 0 1.963-1.95v-5.173c0-1.092-.89-1.95-1.963-1.95h-5.469z" style="fill:var(--color2, #fff)"/><path fill="#44c697" d="M62.928 20.907h-2.181V10.662h7.25v1.92h-5.069v2.166h4.961v1.92h-4.961v4.239z" style="fill:var(--color1, #44c697)"/><path fill="#fff" d="M76.434 20.907h-1.951v-.937c-.666.748-1.536 1.121-2.611 1.121-.799 0-1.398-.205-1.797-.614s-.599-.983-.599-1.72v-5.268h1.951v4.5c0 .911.456 1.367 1.367 1.367.686 0 1.249-.282 1.69-.845v-5.023h1.951v7.419zm3.888 0h-1.951v-7.419h1.951v1.014c.276-.348.63-.635 1.06-.86s.865-.338 1.306-.338v1.905a2.57 2.57 0 0 0-1.582.2c-.368.164-.63.364-.783.599v4.9zm10.542 0h-1.951v-4.485c0-.922-.456-1.382-1.367-1.382-.707 0-1.27.292-1.69.876v4.992h-1.951v-7.419h1.951v.968c.645-.768 1.51-1.152 2.596-1.152.799 0 1.398.21 1.797.63.41.42.614.998.614 1.736v5.238zm2.905-8.218c-.317 0-.594-.113-.829-.338-.225-.236-.338-.512-.338-.829s.113-.589.338-.814c.236-.225.512-.338.829-.338.328 0 .604.113.829.338s.338.497.338.814c0 .317-.113.594-.338.829a1.128 1.128 0 0 1-.829.338zm.983 8.218h-1.951v-7.419h1.951v7.419zm4.422.184c-.686 0-1.208-.174-1.567-.522s-.538-.85-.538-1.505v-3.871H95.84v-1.705h1.229V11.46h1.966v2.028h1.505v1.705h-1.505v3.348c0 .236.061.43.184.584s.287.23.492.23c.307 0 .532-.072.676-.215l.415 1.475c-.358.317-.901.476-1.628.476zm9.66-.184h-1.951v-.937c-.666.748-1.536 1.121-2.611 1.121-.799 0-1.398-.205-1.797-.614s-.599-.983-.599-1.72v-5.268h1.951v4.5c0 .911.456 1.367 1.367 1.367.686 0 1.249-.282 1.69-.845v-5.023h1.951v7.419zm3.888 0h-1.951v-7.419h1.951v1.014c.276-.348.63-.635 1.06-.86s.865-.338 1.306-.338v1.905a2.57 2.57 0 0 0-1.582.2c-.368.164-.63.364-.783.599v4.9zm7.071.184c-1.147 0-2.094-.358-2.842-1.075s-1.121-1.659-1.121-2.826c0-1.096.358-2.017 1.075-2.765.727-.748 1.649-1.121 2.765-1.121 1.106 0 2.002.379 2.688 1.137.686.748 1.029 1.731 1.029 2.949v.43h-5.514c.061.492.282.901.66 1.229s.87.492 1.475.492c.328 0 .681-.067 1.06-.2.389-.133.696-.312.922-.538l.86 1.26c-.748.686-1.766 1.029-3.057 1.029zm1.705-4.593c-.031-.42-.2-.799-.507-1.137-.297-.338-.737-.507-1.321-.507-.553 0-.983.169-1.29.507a1.975 1.975 0 0 0-.538 1.137h3.656zm5.112 4.209c-.246.246-.538.369-.876.369s-.63-.123-.876-.369-.369-.538-.369-.876.123-.63.369-.876.538-.369.876-.369.63.123.876.369.369.538.369.876-.123.63-.369.876zm4.124.384c-.686 0-1.208-.174-1.567-.522s-.538-.85-.538-1.505v-3.871H127.4v-1.705h1.229V11.46h1.966v2.028h1.505v1.705h-1.505v3.348c0 .236.061.43.184.584s.287.23.492.23c.307 0 .532-.072.676-.215l.415 1.475c-.358.317-.901.476-1.628.476zm6.189 0c-1.147 0-2.094-.358-2.842-1.075s-1.121-1.659-1.121-2.826c0-1.096.358-2.017 1.075-2.765.727-.748 1.649-1.121 2.765-1.121 1.106 0 2.002.379 2.688 1.137.686.748 1.029 1.731 1.029 2.949v.43h-5.514c.061.492.282.901.66 1.229s.87.492 1.475.492c.328 0 .681-.067 1.06-.2.389-.133.696-.312.922-.538l.86 1.26c-.748.686-1.766 1.029-3.057 1.029zm1.705-4.593c-.031-.42-.2-.799-.507-1.137-.297-.338-.737-.507-1.321-.507-.553 0-.983.169-1.29.507a1.975 1.975 0 0 0-.538 1.137h3.656zm5.971 4.593a5.66 5.66 0 0 1-1.859-.307c-.584-.205-1.07-.486-1.459-.845l.845-1.367c.287.266.676.502 1.167.707s.957.307 1.398.307c.41 0 .717-.072.922-.215a.668.668 0 0 0 .323-.584c0-.184-.113-.333-.338-.445a2.37 2.37 0 0 0-.814-.261 11.314 11.314 0 0 1-1.06-.23 7.448 7.448 0 0 1-1.06-.369 2.051 2.051 0 0 1-.814-.676c-.215-.317-.323-.707-.323-1.167 0-.655.271-1.208.814-1.659s1.285-.676 2.227-.676c1.147 0 2.145.338 2.995 1.014l-.783 1.336c-.236-.246-.553-.451-.952-.614a3.17 3.17 0 0 0-1.244-.246c-.348 0-.63.072-.845.215-.215.133-.323.307-.323.522 0 .164.108.302.323.415.215.102.486.179.814.23s.681.133 1.06.246c.379.102.732.23 1.06.384.328.143.599.379.814.707s.323.727.323 1.198c0 .696-.287 1.27-.86 1.72-.563.44-1.347.66-2.35.66zm7.135 0c-.686 0-1.208-.174-1.567-.522s-.538-.85-.538-1.505v-3.871H148.4v-1.705h1.229V11.46h1.966v2.028h1.505v1.705h-1.505v3.348c0 .236.061.43.184.584s.287.23.492.23c.307 0 .532-.072.676-.215l.415 1.475c-.358.317-.901.476-1.628.476z" style="fill:var(--color2, #fff)"/></symbol><symbol id="icon-armchair" viewBox="0 0 32 32"><path d="M24.287 16.852H7.713a1.444 1.444 0 0 1-1.442-1.442V5.002A1.444 1.444 0 0 1 7.713 3.56h16.574a1.444 1.444 0 0 1 1.442 1.442V15.41a1.444 1.444 0 0 1-1.442 1.442zM7.713 4.31a.692.692 0 0 0-.692.692V15.41c0 .382.31.692.692.692h16.574c.382 0 .692-.31.692-.692V5.002a.692.692 0 0 0-.692-.692H7.713z"/><path d="M24.287 26.206H7.713a1.444 1.444 0 0 1-1.442-1.442v-7.22a1.444 1.444 0 0 1 1.442-1.442h16.574a1.444 1.444 0 0 1 1.442 1.442v7.22a1.444 1.444 0 0 1-1.442 1.442zM7.713 16.852a.692.692 0 0 0-.692.692v7.22c0 .382.31.692.692.692h16.574c.382 0 .692-.31.692-.692v-7.22a.692.692 0 0 0-.692-.692H7.713z"/><path d="M30.558 26.206h-4.137a1.444 1.444 0 0 1-1.442-1.442V12.11a1.444 1.444 0 0 1 1.442-1.442h4.137A1.444 1.444 0 0 1 32 12.11v12.653a1.444 1.444 0 0 1-1.442 1.442zm-4.137-14.788a.692.692 0 0 0-.692.692v12.653c0 .382.31.692.692.692h4.137c.382 0 .692-.31.692-.692V12.11a.692.692 0 0 0-.692-.692h-4.137zM5.579 26.206H1.442A1.444 1.444 0 0 1 0 24.764V12.111a1.444 1.444 0 0 1 1.442-1.442h4.137a1.444 1.444 0 0 1 1.442 1.442v12.653a1.444 1.444 0 0 1-1.442 1.442zM1.442 11.418a.692.692 0 0 0-.692.692v12.653c0 .382.31.692.692.692h4.137c.382 0 .692-.31.692-.692V12.11a.692.692 0 0 0-.692-.692H1.442z"/><path d="M25.354 21.529H6.646a.375.375 0 0 1 0-.75h18.708a.375.375 0 0 1 0 .75zM3.51 28.44a1.351 1.351 0 0 1-1.313-1.025l-.372-1.494a.376.376 0 0 1 .364-.466h2.642a.375.375 0 0 1 .364.466l-.372 1.494a1.35 1.35 0 0 1-1.312 1.025zm-.841-2.234.256 1.028a.603.603 0 0 0 1.17 0l.256-1.028H2.669zM28.49 28.44a1.351 1.351 0 0 1-1.313-1.025l-.372-1.493a.376.376 0 0 1 .364-.466h2.642a.375.375 0 0 1 .364.466l-.372 1.493a1.35 1.35 0 0 1-1.313 1.025zm-.842-2.234.256 1.028a.603.603 0 0 0 1.17 0l.256-1.028h-1.682z"/></symbol><symbol id="icon-arrow-btm" viewBox="0 0 56 32"><path d="M54.121 1.879a3 3 0 0 1 0 4.243l-24 24a3 3 0 0 1-4.243 0l-24-24a3 3 0 1 1 4.243-4.243L28 23.758 49.879 1.879a2.998 2.998 0 0 1 4.242 0z"/></symbol><symbol id="icon-bedroom" viewBox="0 0 32 32"><path d="M27.099 10.803H4.901a.375.375 0 0 1-.375-.375V2.639c0-.207.168-.375.375-.375h22.198c.207 0 .375.168.375.375v7.789a.375.375 0 0 1-.375.375zm-21.823-.75h21.448V3.014H5.276v7.039z"/><path d="M25.378 10.803H6.622a.375.375 0 0 1-.375-.375V4.36c0-.207.168-.375.375-.375h18.756c.207 0 .375.168.375.375v6.068a.375.375 0 0 1-.375.375zm-18.381-.75h18.006V4.735H6.997v5.318z"/><path d="M14.869 10.803H7.753a1.508 1.508 0 0 1-1.506-1.506V5.491a1.508 1.508 0 0 1 1.506-1.506h7.116a1.508 1.508 0 0 1 1.506 1.506v3.806a1.508 1.508 0 0 1-1.506 1.506zM7.753 4.735a.757.757 0 0 0-.756.756v3.806c0 .417.339.755.756.756h7.116a.757.757 0 0 0 .756-.756V5.491a.757.757 0 0 0-.756-.756H7.753z"/><path d="M24.247 10.803h-7.116a1.508 1.508 0 0 1-1.506-1.506V5.491a1.508 1.508 0 0 1 1.506-1.506h7.116a1.508 1.508 0 0 1 1.506 1.506v3.806a1.508 1.508 0 0 1-1.506 1.506zm-7.116-6.068a.757.757 0 0 0-.756.756v3.806c0 .417.339.755.756.756h7.116a.757.757 0 0 0 .756-.756V5.491a.757.757 0 0 0-.756-.756h-7.116z"/><path d="M27.371 29.736H4.63a1.508 1.508 0 0 1-1.506-1.506V11.559a1.508 1.508 0 0 1 1.506-1.506h22.741a1.508 1.508 0 0 1 1.506 1.506V28.23a1.508 1.508 0 0 1-1.506 1.506zM4.629 10.803a.757.757 0 0 0-.756.756V28.23c0 .417.339.755.756.756H27.37a.757.757 0 0 0 .756-.756V11.559a.757.757 0 0 0-.756-.756H4.629zM27.515 3.014H4.485a1.364 1.364 0 0 1-1.362-1.362v-.291A1.364 1.364 0 0 1 4.485-.001h23.03c.752.001 1.361.61 1.362 1.362v.291a1.364 1.364 0 0 1-1.362 1.362zM4.485.75a.613.613 0 0 0-.612.612v.291c0 .338.274.611.612.612h23.03a.613.613 0 0 0 .612-.612v-.291a.613.613 0 0 0-.612-.612H4.485z"/><path d="M27.515 32H4.485a1.364 1.364 0 0 1-1.362-1.362v-.291a1.364 1.364 0 0 1 1.362-1.362h23.03c.752.001 1.361.61 1.362 1.362v.291A1.364 1.364 0 0 1 27.515 32zm-23.03-2.264a.613.613 0 0 0-.612.612v.291c0 .338.274.611.612.612h23.03a.613.613 0 0 0 .612-.612v-.291a.613.613 0 0 0-.612-.612H4.485z"/></symbol><symbol id="icon-Facebook" viewBox="0 0 32 32"><path d="M17.668 25.408v-8.705h2.403l.318-3h-2.721l.004-1.501c0-.782.074-1.202 1.198-1.202h1.502V8h-2.403c-2.887 0-3.903 1.455-3.903 3.902v1.801h-1.799v3h1.799v8.705h3.602z"/></symbol><symbol id="icon-glanietc" viewBox="0 0 30 32"><path fill="#ffd001" d="M16.925 0C9.188 2.633 2.661 8.001 0 16c2.631 7.907 9.096 13.336 16.925 16 6.962-5.416 10.758-9.766 13.551-16-4.009-2.716-5.693-4.114-8.943-8.317-4.354 2.041-8.145 4.419-11.502 8.23 1.205 1.732 3.205 3.349 4.823 4.677 2.357-1.748 4.155-3.451 5.319-4.912.73.9 1.553 1.499 2.338 2-2.025 3.477-4.298 5.386-7.105 7.209-4.216-2.252-7.605-6.15-9.252-9.447 3.087-5.136 7.929-8.604 13.431-10.537-.891-1.575-2.06-3.042-2.66-4.903z" style="fill:var(--color3, #ffd001)"/></symbol><symbol id="icon-Instagram" viewBox="0 0 32 32"><path d="M12.482 7.518c.91-.041 1.201-.052 3.519-.052h-.003c2.318 0 2.608.01 3.518.052.908.042 1.529.185 2.073.396.562.218 1.036.509 1.511.984s.766.95.985 1.512c.21.543.354 1.163.396 2.071.041.91.052 1.201.052 3.519s-.011 2.608-.052 3.518c-.043.908-.187 1.528-.396 2.071-.219.561-.51 1.037-.985 1.511s-.95.767-1.511.985c-.543.211-1.164.355-2.072.396-.91.041-1.2.052-3.518.052s-2.608-.01-3.518-.052c-.908-.042-1.529-.185-2.072-.396-.561-.218-1.037-.51-1.511-.985s-.766-.95-.984-1.512c-.211-.543-.355-1.163-.396-2.071-.041-.91-.052-1.2-.052-3.518s.011-2.609.051-3.519c.041-.908.185-1.528.396-2.071.219-.561.51-1.037.985-1.512s.95-.766 1.512-.984c.543-.211 1.163-.355 2.071-.396zm3.234 1.486h-.481v-.002c-1.59.002-1.896.012-2.683.048-.832.038-1.284.177-1.585.294-.398.155-.683.34-.981.639s-.484.583-.639.981c-.117.301-.256.752-.294 1.584-.041.9-.049 1.168-.049 3.447s.008 2.549.049 3.449c.038.832.177 1.284.294 1.584.155.398.34.682.639.981s.583.484.981.638c.301.117.753.256 1.585.294.9.041 1.17.05 3.448.05s2.549-.009 3.448-.05c.832-.038 1.284-.177 1.584-.294.398-.155.682-.34.981-.638s.484-.582.639-.98c.117-.3.256-.752.294-1.584.041-.9.05-1.17.05-3.447s-.009-2.548-.05-3.447c-.038-.832-.177-1.284-.294-1.584-.155-.398-.34-.683-.639-.981s-.582-.484-.981-.638c-.301-.117-.752-.256-1.584-.294-.9-.041-1.17-.049-3.448-.049h-.284zM11.619 16a4.382 4.382 0 1 1 8.764 0 4.382 4.382 0 0 1-8.764 0zm7.226 0a2.844 2.844 0 1 0-5.689 0 2.844 2.844 0 0 0 5.689 0zm.687-4.555a1.025 1.025 0 1 1 2.047.001 1.025 1.025 0 0 1-2.047-.001z"/></symbol><symbol id="icon-kitchen" viewBox="0 0 32 32"><path d="M21.692 29.162H10.308a.375.375 0 0 1-.375-.375v-8.718c0-.207.168-.375.375-.375h11.384c.207 0 .375.168.375.375v8.718a.375.375 0 0 1-.375.375zm-11.009-.75h10.634v-7.968H10.683v7.968z"/><path d="M21.692 30.766H10.308a.375.375 0 0 1-.375-.375v-1.605c0-.207.168-.375.375-.375h11.384c.207 0 .375.168.375.375v1.605a.375.375 0 0 1-.375.375zm-11.009-.75h10.634v-.855H10.683v.855zM21.692 20.443H10.308a.375.375 0 0 1-.375-.375v-3.696c0-.207.168-.375.375-.375h11.384c.207 0 .375.168.375.375v3.696a.375.375 0 0 1-.375.375zm-11.009-.75h10.634v-2.946H10.683v2.946z"/><path d="M16 19.435a1.215 1.215 0 1 1 0-2.43 1.215 1.215 0 0 1 0 2.43zm0-1.68a.465.465 0 1 0 0 .93.465.465 0 0 0 0-.93zM19.157 19.435a1.215 1.215 0 1 1 0-2.43 1.215 1.215 0 0 1 0 2.43zm0-1.68a.465.465 0 1 0 0 .93.465.465 0 0 0 0-.93zM12.843 19.435a1.215 1.215 0 1 1 0-2.43 1.215 1.215 0 0 1 0 2.43zm0-1.68a.465.465 0 1 0 0 .93.465.465 0 0 0 0-.93zM19.491 22.636H12.51a.882.882 0 0 1 0-1.764h6.981a.882.882 0 1 1 0 1.764h-.001zm-6.982-1.014a.132.132 0 1 0 0 .264h6.981a.132.132 0 1 0 0-.264h-6.981z"/><path d="M19.157 27.964h-6.315a.375.375 0 0 1-.375-.375V22.26c0-.207.168-.375.375-.375h6.315c.207 0 .375.168.375.375v5.329a.375.375 0 0 1-.375.375zm-5.939-.75h5.565v-4.579h-5.565v4.579zM13.501 16.747a.375.375 0 0 1-.375-.375v-.931a.375.375 0 0 1 .75 0v.931a.375.375 0 0 1-.375.375zM15.279 16.747a.375.375 0 0 1-.375-.375v-.556h-.5a.375.375 0 0 1 0-.75h.875c.207 0 .375.168.375.375v.931a.375.375 0 0 1-.375.375zM11.723 16.747a.375.375 0 0 1-.375-.375v-.931c0-.207.168-.375.375-.375h.875a.375.375 0 0 1 0 .75h-.5v.556a.375.375 0 0 1-.375.375zM18.499 16.747a.375.375 0 0 1-.375-.375v-.931a.375.375 0 0 1 .75 0v.931a.375.375 0 0 1-.375.375zM16.721 16.747a.375.375 0 0 1-.375-.375v-.931c0-.207.168-.375.375-.375h.875a.375.375 0 0 1 0 .75h-.5v.556a.375.375 0 0 1-.375.375zM20.277 16.747a.375.375 0 0 1-.375-.375v-.556h-.5a.375.375 0 0 1 0-.75h.875c.207 0 .375.168.375.375v.931a.375.375 0 0 1-.375.375zM23.505 18.113h-.671a.375.375 0 0 1 0-.75h.671a.375.375 0 0 1 0 .75z"/><path d="M24.646 30.766h-2.954a.375.375 0 0 1-.375-.375V16.372c0-.207.168-.375.375-.375h2.954c.207 0 .375.168.375.375v14.019a.375.375 0 0 1-.375.375zm-2.579-.75h2.204V16.747h-2.204v13.269z"/><path d="M31.625 23.757h-6.979a.375.375 0 0 1-.375-.375v-7.01c0-.207.168-.375.375-.375h6.979c.207 0 .375.168.375.375v7.01a.375.375 0 0 1-.375.375zm-6.604-.75h6.229v-6.26h-6.229v6.26z"/><path d="M29.035 18.113h-1.799a.375.375 0 0 1 0-.75h1.799a.375.375 0 0 1 0 .75zM6.241 18.113H4.442a.375.375 0 0 1 0-.75h1.799a.375.375 0 0 1 0 .75zM31.625 30.766h-6.979a.375.375 0 0 1-.375-.375v-7.01c0-.207.168-.375.375-.375h6.979c.207 0 .375.168.375.375v7.01a.375.375 0 0 1-.375.375zm-6.604-.75h6.229v-6.26h-6.229v6.26z"/><path d="M29.035 25.122h-1.799a.375.375 0 0 1 0-.75h1.799a.375.375 0 0 1 0 .75zM5.341 30.766H.375A.375.375 0 0 1 0 30.391V20.068c0-.207.168-.375.375-.375h4.966c.207 0 .375.168.375.375v10.323a.375.375 0 0 1-.375.375zm-4.591-.75h4.216v-9.573H.75v9.573z"/><path d="M10.308 30.766H5.342a.375.375 0 0 1-.375-.375V20.068c0-.207.168-.375.375-.375h4.966c.207 0 .375.168.375.375v10.323a.375.375 0 0 1-.375.375zm-4.592-.75h4.216v-9.573H5.716v9.573z"/><path d="M6.527 26.229a.375.375 0 0 1-.375-.375v-1.248a.375.375 0 0 1 .75 0v1.248a.375.375 0 0 1-.375.375zM4.156 26.229a.375.375 0 0 1-.375-.375v-1.248a.375.375 0 0 1 .75 0v1.248a.375.375 0 0 1-.375.375zM10.308 20.443H.375A.375.375 0 0 1 0 20.068v-3.696c0-.207.168-.375.375-.375h9.933c.207 0 .375.168.375.375v3.696a.375.375 0 0 1-.375.375zm-9.558-.75h9.183v-2.946H.75v2.946zM21.269 8.889H10.73a.8.8 0 0 1-.798-.798V7.014c0-.44.357-.797.798-.798h10.539c.44 0 .797.357.798.798v1.077c0 .44-.357.797-.798.798zM10.731 6.966a.048.048 0 0 0-.048.048v1.077c0 .026.021.048.048.048H21.27a.048.048 0 0 0 .048-.048V7.014a.048.048 0 0 0-.048-.048H10.731z"/><path d="M20.488 6.966h-8.975a.79.79 0 0 1-.487-1.412l.288-.225a4.694 4.694 0 0 0 1.813-3.72c0-.207.168-.375.375-.375H18.5c.207 0 .375.168.375.375a4.695 4.695 0 0 0 1.813 3.72l.288.225a.79.79 0 0 1-.486 1.412zm-6.624-4.982a5.436 5.436 0 0 1-2.088 3.935l-.288.225c-.017.014-.021.039-.007.056a.04.04 0 0 0 .032.015h8.975a.04.04 0 0 0 .04-.04.044.044 0 0 0-.015-.032l-.288-.225a5.436 5.436 0 0 1-2.088-3.935h-4.273zM30.464 8.889h-5.968a.94.94 0 0 1 0-1.88h5.968a.94.94 0 0 1 0 1.88zm-5.967-1.13a.19.19 0 1 0 0 .38h5.968a.19.19 0 1 0 0-.38h-5.968zM7.503 8.889H1.535a.94.94 0 0 1 0-1.88h5.968a.94.94 0 0 1 0 1.88zm-5.967-1.13a.19.19 0 1 0 0 .38h5.968a.19.19 0 1 0 0-.38H1.536z"/><path d="M6.905 7.759H5.38a.375.375 0 0 1-.375-.375V6.095c0-.207.168-.375.375-.375h1.525c.207 0 .375.168.375.375v1.289a.375.375 0 0 1-.375.375zm-1.151-.75h.775V6.47h-.775v.539z"/><path d="M7.264 6.47H5.02a.375.375 0 0 1 0-.75h2.244a.375.375 0 0 1 0 .75zM3.66 7.759H2.135a.375.375 0 0 1-.375-.375V6.095c0-.207.168-.375.375-.375H3.66c.207 0 .375.168.375.375v1.289a.375.375 0 0 1-.375.375zm-1.15-.75h.775V6.47H2.51v.539z"/><path d="M4.019 6.47H1.775a.375.375 0 0 1 0-.75h2.244a.375.375 0 0 1 0 .75zM6.905 6.47H5.38a.375.375 0 0 1-.375-.375V4.806c0-.207.168-.375.375-.375h1.525c.207 0 .375.168.375.375v1.289a.375.375 0 0 1-.375.375zm-1.151-.75h.775v-.539h-.775v.539z"/><path d="M7.264 5.181H5.02a.375.375 0 0 1 0-.75h2.244a.375.375 0 0 1 0 .75zM3.66 6.47H2.135a.375.375 0 0 1-.375-.375V4.806c0-.207.168-.375.375-.375H3.66c.207 0 .375.168.375.375v1.289a.375.375 0 0 1-.375.375zm-1.15-.75h.775v-.539H2.51v.539z"/><path d="M4.019 5.181H1.775a.375.375 0 0 1 0-.75h2.244a.375.375 0 0 1 0 .75zM27.48 7.759a2.42 2.42 0 0 1-2.049-3.708.376.376 0 0 1 .317-.175h3.464c.129 0 .249.066.317.175a2.42 2.42 0 0 1-2.049 3.708zm-1.51-3.133a1.671 1.671 0 1 0 3.022.001H25.97z"/><path d="M27.445 4.626a.375.375 0 0 1-.375-.375V1.838a.375.375 0 0 1 .75 0v2.413a.375.375 0 0 1-.375.375z"/><path d="M27.445 4.626a.375.375 0 0 1-.265-.64l1.298-1.298a.375.375 0 0 1 .53.53L27.71 4.516a.376.376 0 0 1-.265.11z"/><path d="M27.445 4.626a.372.372 0 0 1-.265-.11l-1.298-1.298a.375.375 0 1 1 .524-.536l.006.006 1.298 1.298a.375.375 0 0 1-.265.64zM19.474 15.816h-1.829a1.88 1.88 0 0 1-1.878-1.879v-.881c0-.207.168-.375.375-.375h4.836c.207 0 .375.168.375.375v.881a1.882 1.882 0 0 1-1.878 1.879zm-2.957-2.385v.507a1.13 1.13 0 0 0 1.128 1.128h1.829a1.129 1.129 0 0 0 1.128-1.128v-.507h-4.086z"/><path d="M21.692 14.092h-.714a.375.375 0 0 1 0-.75h.714a.375.375 0 0 1 0 .75zM16.02 14.092h-.714a.375.375 0 0 1 0-.75h.714a.375.375 0 0 1 0 .75z"/><path d="M20.978 13.431h-4.836a.375.375 0 0 1-.309-.587c.525-.763 1.57-1.238 2.727-1.238s2.202.474 2.727 1.238a.374.374 0 0 1-.309.587zm-3.829-.75h2.822a3.228 3.228 0 0 0-2.822 0z"/><path d="M18.102 12.385a.373.373 0 0 1-.249-.095 1.065 1.065 0 1 1 1.415 0 .375.375 0 1 1-.502-.557l.004-.003a.315.315 0 1 0-.419-.001.374.374 0 0 1-.249.655zM4.449 16.747H2.865a.375.375 0 0 1-.375-.375v-4.028c0-.207.168-.375.375-.375h1.584c.207 0 .375.168.375.375v4.028a.375.375 0 0 1-.375.375zm-1.209-.75h.834v-3.278H3.24v3.278z"/><path d="M2.865 16.747H1.281a.375.375 0 0 1-.375-.375v-4.028c0-.207.168-.375.375-.375h1.584c.207 0 .375.168.375.375v4.028a.375.375 0 0 1-.375.375zm-1.209-.75h.834v-3.278h-.834v3.278zM7.928 16.747h-.707a1.298 1.298 0 0 1-1.296-1.296v-1.315c0-.207.168-.375.375-.375h2.55c.207 0 .375.168.375.375v1.315a1.298 1.298 0 0 1-1.296 1.296zm-1.254-2.236v.94c0 .302.245.546.546.546h.707a.546.546 0 0 0 .546-.546v-.94h-1.8z"/><path d="M9.068 14.511H6.08a.708.708 0 0 1-.708-.708v-.389c0-.391.317-.708.708-.708h2.988c.391 0 .708.317.708.708v.389a.708.708 0 0 1-.708.708zm-2.946-.75h2.905v-.306H6.122v.306zM24.95 16.747h-1.931a.375.375 0 0 1-.375-.375v-2.639c0-.207.168-.375.375-.375h1.931c.207 0 .375.168.375.375v2.639a.375.375 0 0 1-.375.375zm-1.555-.75h1.181v-1.889h-1.181v1.889z"/><path d="M24.95 14.108h-1.931a.375.375 0 0 1-.375-.375V12.58c0-.207.168-.375.375-.375h1.931c.207 0 .375.168.375.375v1.153a.375.375 0 0 1-.375.375zm-1.555-.75h1.181v-.403h-1.181v.403zM29.58 15.479c-.613 0-1.093-.59-1.093-1.343s.48-1.343 1.093-1.343 1.093.59 1.093 1.343-.48 1.343-1.093 1.343zm0-1.936c-.162 0-.343.253-.343.593s.181.593.343.593.343-.253.343-.593c0-.339-.181-.593-.343-.593z"/><path d="M29.58 13.536a.376.376 0 0 1-.366-.291l-.573-2.5a.963.963 0 1 1 1.878 0l-.573 2.5a.376.376 0 0 1-.366.291zm0-3.22a.213.213 0 0 0-.208.261l.208.906.208-.906a.212.212 0 0 0-.208-.26zM26.883 13.536a.376.376 0 0 1-.366-.291l-.573-2.5a.963.963 0 1 1 1.878 0l-.573 2.5a.376.376 0 0 1-.366.291zm0-3.22a.213.213 0 0 0-.208.261l.208.906.208-.906a.212.212 0 0 0-.208-.26z"/><path d="M27.744 14.748h-1.723a.374.374 0 0 1-.371-.322 1.507 1.507 0 0 1 .347-1.205c.242-.28.565-.44.886-.44s.644.16.886.44c.285.332.411.772.346 1.205a.375.375 0 0 1-.371.322zm-1.333-.75h.942a.71.71 0 0 0-.152-.285c-.095-.11-.221-.181-.32-.181s-.224.071-.32.181a.727.727 0 0 0-.151.285z"/></symbol><symbol id="icon-living-room" viewBox="0 0 32 32"><path d="M14.933 27.897H5.365a1.444 1.444 0 0 1-1.442-1.442v-3.717a1.444 1.444 0 0 1 1.442-1.442h9.568a1.444 1.444 0 0 1 1.442 1.442v3.717a1.444 1.444 0 0 1-1.442 1.442zm-9.568-5.851a.692.692 0 0 0-.692.692v3.717c0 .382.31.692.692.692h9.568c.382 0 .692-.31.692-.692v-3.717a.692.692 0 0 0-.692-.692H5.365z"/><path d="M3.231 27.897H1.443a1.444 1.444 0 0 1-1.442-1.442v-7.116a1.444 1.444 0 0 1 1.442-1.442h1.788a1.444 1.444 0 0 1 1.442 1.442v7.116a1.444 1.444 0 0 1-1.442 1.442zm-1.789-9.25a.692.692 0 0 0-.692.692v7.116c0 .382.31.692.692.692H3.23c.382 0 .692-.31.692-.692v-7.116a.692.692 0 0 0-.692-.692H1.442z"/><path d="M27.702 24.972H4.297a.375.375 0 0 1 0-.75h23.405a.375.375 0 0 1 0 .75zM14.933 22.046H5.365a1.444 1.444 0 0 1-1.442-1.442v-5.711a1.444 1.444 0 0 1 1.442-1.442h9.568a1.444 1.444 0 0 1 1.442 1.442v5.711a1.444 1.444 0 0 1-1.442 1.442zm-9.568-7.845a.692.692 0 0 0-.692.692v5.711c0 .382.31.692.692.692h9.568c.382 0 .692-.31.692-.692v-5.711a.692.692 0 0 0-.692-.692H5.365z"/><path d="M26.635 22.046h-9.568a1.444 1.444 0 0 1-1.442-1.442v-5.711a1.444 1.444 0 0 1 1.442-1.442h9.568a1.444 1.444 0 0 1 1.442 1.442v5.711a1.444 1.444 0 0 1-1.442 1.442zm-9.568-7.845a.692.692 0 0 0-.692.692v5.711c0 .382.31.692.692.692h9.568c.382 0 .692-.31.692-.692v-5.711a.692.692 0 0 0-.692-.692h-9.568z"/><path d="M26.635 27.897h-9.568a1.444 1.444 0 0 1-1.442-1.442v-3.717a1.444 1.444 0 0 1 1.442-1.442h9.568a1.444 1.444 0 0 1 1.442 1.442v3.717a1.444 1.444 0 0 1-1.442 1.442zm-9.568-5.851a.692.692 0 0 0-.692.692v3.717c0 .382.31.692.692.692h9.568c.382 0 .692-.31.692-.692v-3.717a.692.692 0 0 0-.692-.692h-9.568z"/><path d="M30.558 27.897H28.77a1.444 1.444 0 0 1-1.442-1.442v-7.116a1.444 1.444 0 0 1 1.442-1.442h1.788A1.444 1.444 0 0 1 32 19.339v7.116a1.444 1.444 0 0 1-1.442 1.442zm-1.789-9.25a.692.692 0 0 0-.692.692v7.116c0 .382.31.692.692.692h1.788c.382 0 .692-.31.692-.692v-7.116a.692.692 0 0 0-.692-.692h-1.788zM16.877 22.046h-1.753a.375.375 0 0 1 0-.75h1.753a.375.375 0 0 1 0 .75zM22.864 12.364H9.136a.375.375 0 0 1-.375-.375V3.08c0-.207.168-.375.375-.375h13.728c.207 0 .375.168.375.375v8.909a.375.375 0 0 1-.375.375zm-13.353-.75h12.978v-8.16H9.511v8.16z"/><path d="M21.615 11.115h-11.23a.375.375 0 0 1-.375-.375V4.329c0-.207.168-.375.375-.375h11.23c.207 0 .375.168.375.375v6.411a.375.375 0 0 1-.375.375zm-10.855-.75h10.48V4.704H10.76v5.661z"/><path d="M11.729 9.741a.375.375 0 0 1-.265-.64l1.928-1.928a.375.375 0 0 1 .53 0l1.17 1.17a.375.375 0 0 1-.53.53l-.905-.905-1.663 1.663a.376.376 0 0 1-.265.11z"/><path d="M20.271 9.722a.372.372 0 0 1-.265-.11l-1.369-1.37-1.54-1.54-.241-.24-.227-.227-2.087 2.087a.375.375 0 0 1-.53-.53l2.352-2.352a.375.375 0 0 1 .53 0l.492.492.241.241 1.54 1.54 1.369 1.37a.375.375 0 0 1-.265.64z"/><path d="M18.902 8.352a.372.372 0 0 1-.265-.11l-1.541-1.541a.375.375 0 0 1-.082-.407 1.557 1.557 0 1 1 2.03 2.03.363.363 0 0 1-.142.028zM17.83 6.375l1.134 1.134a.805.805 0 1 0-1.134-1.134zM29.664 29.295a.984.984 0 0 1-.957-.748l-.233-.934a.376.376 0 0 1 .364-.466h1.653a.375.375 0 0 1 .364.466l-.233.934a.985.985 0 0 1-.957.748zm-.347-1.398.117.468a.236.236 0 0 0 .459 0l.117-.468h-.693zM2.336 29.295a.984.984 0 0 1-.957-.748l-.233-.934a.376.376 0 0 1 .364-.466h1.653a.375.375 0 0 1 .364.466l-.233.934a.985.985 0 0 1-.957.748zm-.346-1.398.117.468a.236.236 0 0 0 .459 0l.117-.468H1.99z"/></symbol><symbol id="icon-logo-top" viewBox="0 0 154 32"><path fill="#44c697" d="M13.582 12.582H37.71V9.177H13.582V3.432H37.71V.027H11.724a1.57 1.57 0 0 0-1.57 1.56v16.767h3.428v-5.771z" style="fill:var(--color1, #44c697)"/><path fill="#1e2e36" d="M41.636 0h-1.884v18.327h3.428V1.56C43.206.702 42.5 0 41.636 0z" style="fill:var(--color4, #1e2e36)"/><path fill="#1e2e36" d="M45.901 11.932v9.098H7.432v-9.098H1.963A1.954 1.954 0 0 0 0 13.882v5.173c0 1.092.89 1.95 1.963 1.95h1.256l.55 6.395v4.601h1.413L6.831 27.4h39.673l1.649 4.601h1.413V27.4l.55-6.395h1.256a1.954 1.954 0 0 0 1.963-1.95v-5.173c0-1.092-.89-1.95-1.963-1.95h-5.469z" style="fill:var(--color4, #1e2e36)"/><path fill="#44c697" d="M62.928 20.907h-2.181V10.662h7.25v1.92h-5.069v2.166h4.961v1.92h-4.961v4.239z" style="fill:var(--color1, #44c697)"/><path fill="#1e2e36" d="M76.434 20.907h-1.951v-.937c-.666.748-1.536 1.121-2.611 1.121-.799 0-1.398-.205-1.797-.614s-.599-.983-.599-1.72v-5.268h1.951v4.5c0 .911.456 1.367 1.367 1.367.686 0 1.249-.282 1.69-.845v-5.023h1.951v7.419zm3.888 0h-1.951v-7.419h1.951v1.014c.276-.348.63-.635 1.06-.86s.865-.338 1.306-.338v1.905a2.57 2.57 0 0 0-1.582.2c-.368.164-.63.364-.783.599v4.9zm10.542 0h-1.951v-4.485c0-.922-.456-1.382-1.367-1.382-.707 0-1.27.292-1.69.876v4.992h-1.951v-7.419h1.951v.968c.645-.768 1.51-1.152 2.596-1.152.799 0 1.398.21 1.797.63.41.42.614.998.614 1.736v5.238zm2.905-8.218c-.317 0-.594-.113-.829-.338-.225-.236-.338-.512-.338-.829s.113-.589.338-.814c.236-.225.512-.338.829-.338.328 0 .604.113.829.338s.338.497.338.814c0 .317-.113.594-.338.829a1.128 1.128 0 0 1-.829.338zm.983 8.218h-1.951v-7.419h1.951v7.419zm4.422.184c-.686 0-1.208-.174-1.567-.522s-.538-.85-.538-1.505v-3.871H95.84v-1.705h1.229V11.46h1.966v2.028h1.505v1.705h-1.505v3.348c0 .236.061.43.184.584s.287.23.492.23c.307 0 .532-.072.676-.215l.415 1.475c-.358.317-.901.476-1.628.476zm9.66-.184h-1.951v-.937c-.666.748-1.536 1.121-2.611 1.121-.799 0-1.398-.205-1.797-.614s-.599-.983-.599-1.72v-5.268h1.951v4.5c0 .911.456 1.367 1.367 1.367.686 0 1.249-.282 1.69-.845v-5.023h1.951v7.419zm3.888 0h-1.951v-7.419h1.951v1.014c.276-.348.63-.635 1.06-.86s.865-.338 1.306-.338v1.905a2.57 2.57 0 0 0-1.582.2c-.368.164-.63.364-.783.599v4.9zm7.071.184c-1.147 0-2.094-.358-2.842-1.075s-1.121-1.659-1.121-2.826c0-1.096.358-2.017 1.075-2.765.727-.748 1.649-1.121 2.765-1.121 1.106 0 2.002.379 2.688 1.137.686.748 1.029 1.731 1.029 2.949v.43h-5.514c.061.492.282.901.66 1.229s.87.492 1.475.492c.328 0 .681-.067 1.06-.2.389-.133.696-.312.922-.538l.86 1.26c-.748.686-1.766 1.029-3.057 1.029zm1.705-4.593c-.031-.42-.2-.799-.507-1.137-.297-.338-.737-.507-1.321-.507-.553 0-.983.169-1.29.507a1.975 1.975 0 0 0-.538 1.137h3.656zm5.112 4.209c-.246.246-.538.369-.876.369s-.63-.123-.876-.369-.369-.538-.369-.876.123-.63.369-.876.538-.369.876-.369.63.123.876.369.369.538.369.876-.123.63-.369.876zm4.124.384c-.686 0-1.208-.174-1.567-.522s-.538-.85-.538-1.505v-3.871H127.4v-1.705h1.229V11.46h1.966v2.028h1.505v1.705h-1.505v3.348c0 .236.061.43.184.584s.287.23.492.23c.307 0 .532-.072.676-.215l.415 1.475c-.358.317-.901.476-1.628.476zm6.189 0c-1.147 0-2.094-.358-2.842-1.075s-1.121-1.659-1.121-2.826c0-1.096.358-2.017 1.075-2.765.727-.748 1.649-1.121 2.765-1.121 1.106 0 2.002.379 2.688 1.137.686.748 1.029 1.731 1.029 2.949v.43h-5.514c.061.492.282.901.66 1.229s.87.492 1.475.492c.328 0 .681-.067 1.06-.2.389-.133.696-.312.922-.538l.86 1.26c-.748.686-1.766 1.029-3.057 1.029zm1.705-4.593c-.031-.42-.2-.799-.507-1.137-.297-.338-.737-.507-1.321-.507-.553 0-.983.169-1.29.507a1.975 1.975 0 0 0-.538 1.137h3.656zm5.971 4.593a5.66 5.66 0 0 1-1.859-.307c-.584-.205-1.07-.486-1.459-.845l.845-1.367c.287.266.676.502 1.167.707s.957.307 1.398.307c.41 0 .717-.072.922-.215a.668.668 0 0 0 .323-.584c0-.184-.113-.333-.338-.445a2.37 2.37 0 0 0-.814-.261 11.314 11.314 0 0 1-1.06-.23 7.448 7.448 0 0 1-1.06-.369 2.051 2.051 0 0 1-.814-.676c-.215-.317-.323-.707-.323-1.167 0-.655.271-1.208.814-1.659s1.285-.676 2.227-.676c1.147 0 2.145.338 2.995 1.014l-.783 1.336c-.236-.246-.553-.451-.952-.614a3.17 3.17 0 0 0-1.244-.246c-.348 0-.63.072-.845.215-.215.133-.323.307-.323.522 0 .164.108.302.323.415.215.102.486.179.814.23s.681.133 1.06.246c.379.102.732.23 1.06.384.328.143.599.379.814.707s.323.727.323 1.198c0 .696-.287 1.27-.86 1.72-.563.44-1.347.66-2.35.66zm7.135 0c-.686 0-1.208-.174-1.567-.522s-.538-.85-.538-1.505v-3.871H148.4v-1.705h1.229V11.46h1.966v2.028h1.505v1.705h-1.505v3.348c0 .236.061.43.184.584s.287.23.492.23c.307 0 .532-.072.676-.215l.415 1.475c-.358.317-.901.476-1.628.476z" style="fill:var(--color4, #1e2e36)"/></symbol><symbol id="icon-shopping-cart" viewBox="0 0 31 32"><path d="M11.613 27.29a.323.323 0 1 0 0 .646.323.323 0 0 0 0-.646zm-2.258.323a2.258 2.258 0 1 1 4.516 0 2.258 2.258 0 0 1-4.516 0zM25.806 27.29a.323.323 0 1 0 0 .646.323.323 0 0 0 0-.646zm-2.258.323a2.258 2.258 0 1 1 4.516 0 2.258 2.258 0 0 1-4.516 0zM.323 1.806c0-.534.433-.968.968-.968h5.161c.461 0 .858.326.949.778L8.537 7.29h21.141a.97.97 0 0 1 .951 1.149l-2.066 10.833a3.55 3.55 0 0 1-3.538 2.857H12.5a3.547 3.547 0 0 1-3.538-2.856L6.805 8.494a.68.68 0 0 1-.018-.092L5.66 2.773H1.292a.968.968 0 0 1-.968-.968zm8.601 7.42 1.935 9.67a1.613 1.613 0 0 0 1.613 1.298h12.58a1.617 1.617 0 0 0 1.612-1.295l.001-.003 1.844-9.67H8.925z"/></symbol><symbol id="icon-sofa" viewBox="0 0 38 32"><path d="M17.777 30.163H6.386a1.719 1.719 0 0 1-1.717-1.717v-4.425a1.719 1.719 0 0 1 1.717-1.717h11.391a1.719 1.719 0 0 1 1.717 1.717v4.425a1.719 1.719 0 0 1-1.717 1.717zm-11.39-6.965a.825.825 0 0 0-.824.824v4.425c0 .455.369.823.824.824h11.391a.825.825 0 0 0 .824-.824v-4.425a.825.825 0 0 0-.824-.824H6.387z"/><path d="M3.846 30.163H1.717A1.719 1.719 0 0 1 0 28.446v-8.471a1.719 1.719 0 0 1 1.717-1.717h2.129a1.719 1.719 0 0 1 1.717 1.717v8.471a1.719 1.719 0 0 1-1.717 1.717zM1.717 19.152a.825.825 0 0 0-.824.824v8.471a.825.825 0 0 0 .824.824h2.129a.825.825 0 0 0 .824-.824v-8.471a.825.825 0 0 0-.824-.824H1.717z"/><path d="M32.979 26.681H5.116a.446.446 0 1 1 0-.892h27.863a.446.446 0 0 1 0 .892zM17.777 23.198H6.386a1.719 1.719 0 0 1-1.717-1.717v-6.799a1.719 1.719 0 0 1 1.717-1.717h11.391a1.719 1.719 0 0 1 1.717 1.717v6.799a1.719 1.719 0 0 1-1.717 1.717zm-11.39-9.34a.825.825 0 0 0-.824.824v6.799c0 .455.369.823.824.824h11.391a.825.825 0 0 0 .824-.824v-6.799a.825.825 0 0 0-.824-.824H6.387z"/><path d="M31.709 23.198H20.318a1.719 1.719 0 0 1-1.717-1.717v-6.799a1.719 1.719 0 0 1 1.717-1.717h11.391a1.719 1.719 0 0 1 1.717 1.717v6.799a1.719 1.719 0 0 1-1.717 1.717zm-11.391-9.34a.825.825 0 0 0-.824.824v6.799c0 .455.369.823.824.824h11.391a.825.825 0 0 0 .824-.824v-6.799a.825.825 0 0 0-.824-.824H20.318z"/><path d="M31.709 30.163H20.318a1.719 1.719 0 0 1-1.717-1.717v-4.425a1.719 1.719 0 0 1 1.717-1.717h11.391a1.719 1.719 0 0 1 1.717 1.717v4.425a1.719 1.719 0 0 1-1.717 1.717zm-11.391-6.965a.825.825 0 0 0-.824.824v4.425c0 .455.369.823.824.824h11.391a.825.825 0 0 0 .824-.824v-4.425a.825.825 0 0 0-.824-.824H20.318z"/><path d="M36.378 30.163h-2.129a1.719 1.719 0 0 1-1.717-1.717v-8.471a1.719 1.719 0 0 1 1.717-1.717h2.129a1.719 1.719 0 0 1 1.717 1.717v8.471a1.719 1.719 0 0 1-1.717 1.717zm-2.129-11.011a.825.825 0 0 0-.824.824v8.471a.825.825 0 0 0 .824.824h2.129a.825.825 0 0 0 .824-.824v-8.471a.825.825 0 0 0-.824-.824h-2.129zM20.091 23.198h-2.087a.446.446 0 1 1 0-.892h2.087a.446.446 0 1 1 0 .892zM27.219 11.672H10.876a.446.446 0 0 1-.446-.446V.619c0-.247.2-.446.446-.446h16.343c.247 0 .446.2.446.446v10.607c0 .246-.2.446-.446.446zm-15.897-.893h15.45V1.065h-15.45v9.714z"/><path d="M25.732 10.185H12.363a.446.446 0 0 1-.446-.446V2.107c0-.247.2-.446.446-.446h13.369c.247 0 .446.2.446.446v7.632c0 .247-.2.446-.446.446zM12.81 9.292h12.476V2.553H12.81v6.739z"/><path d="M13.963 8.549a.446.446 0 0 1-.315-.762l2.296-2.296a.447.447 0 0 1 .631 0l1.393 1.393a.447.447 0 0 1-.631.631l-1.078-1.077-1.98 1.98a.446.446 0 0 1-.316.131z"/><path d="M24.132 8.526a.447.447 0 0 1-.316-.131l-1.63-1.63-1.834-1.834-.286-.286-.271-.27L17.31 6.86a.447.447 0 0 1-.631-.631l2.8-2.8a.446.446 0 0 1 .632 0l.585.586.287.287 1.834 1.834 1.63 1.63a.447.447 0 0 1-.316.762z"/><path d="M22.502 6.895a.447.447 0 0 1-.316-.131L20.352 4.93a.447.447 0 0 1-.097-.485 1.853 1.853 0 1 1 2.416 2.415.446.446 0 0 1-.169.033zm-1.276-2.354 1.35 1.35a.96.96 0 1 0-1.35-1.35zM35.314 31.827a1.174 1.174 0 0 1-1.14-.89l-.277-1.112a.446.446 0 0 1 .433-.554h1.968a.446.446 0 0 1 .433.554l-.277 1.112c-.13.524-.6.891-1.14.89zm-.412-1.664.139.558a.28.28 0 0 0 .546 0l.139-.558h-.825zM2.781 31.827a1.174 1.174 0 0 1-1.14-.89l-.277-1.112a.446.446 0 0 1 .433-.554h1.968a.446.446 0 0 1 .433.554l-.277 1.112c-.13.524-.6.891-1.14.89zm-.412-1.664.139.558a.28.28 0 0 0 .546 0l.139-.558h-.825z"/></symbol><symbol id="icon-Telegram" viewBox="0 0 32 32"><path d="M13.339 19.255v-.001l7.419-6.695c.326-.289-.071-.43-.503-.168l-9.156 5.777-3.955-1.234c-.854-.262-.86-.848.192-1.27l15.412-5.943c.704-.32 1.383.169 1.115 1.246l-2.625 12.368c-.183.879-.714 1.089-1.45.683l-3.998-2.954-1.922 1.869-.018.018c-.215.209-.393.382-.782.382l.272-4.078z"/></symbol><symbol id="icon-thumb" viewBox="0 0 32 32"><path d="M29.934 13.464H2.065a.375.375 0 0 1-.375-.375V4.938c0-.207.168-.375.375-.375h27.869c.207 0 .375.168.375.375v8.151a.375.375 0 0 1-.375.375zm-27.493-.75H29.56V5.313H2.441v7.401z"/><path d="M29.934 21.615H2.065a.375.375 0 0 1-.375-.375v-8.151c0-.207.168-.375.375-.375h27.869c.207 0 .375.168.375.375v8.151a.375.375 0 0 1-.375.375zm-27.493-.75H29.56v-7.401H2.441v7.401z"/><path d="M29.934 29.766H2.065a.375.375 0 0 1-.375-.375V21.24c0-.207.168-.375.375-.375h27.869c.207 0 .375.168.375.375v8.151a.375.375 0 0 1-.375.375zm-27.493-.75H29.56v-7.401H2.441v7.401zM16.701 9.388h-1.403a.375.375 0 0 1 0-.75h1.403a.375.375 0 0 1 0 .75zM16.701 17.539h-1.403a.375.375 0 0 1 0-.75h1.403a.375.375 0 0 1 0 .75z"/><path d="M16.701 25.69h-1.403a.375.375 0 0 1 0-.75h1.403a.375.375 0 0 1 0 .75zM31 5.313H1a1.002 1.002 0 0 1-1-1V3.234a1.002 1.002 0 0 1 1-1h30c.552.001.999.448 1 1v1.079a1.002 1.002 0 0 1-1 1zM1 2.984a.25.25 0 0 0-.25.25v1.079c0 .138.112.25.25.25h30a.25.25 0 0 0 .25-.25V3.234a.25.25 0 0 0-.25-.25H1z"/></symbol><symbol id="icon-wardrobe" viewBox="0 0 32 32"><path d="M26.485 32H5.515a.375.375 0 0 1-.375-.375V.375c0-.207.168-.375.375-.375h20.97c.207 0 .375.168.375.375v31.25a.375.375 0 0 1-.375.375zM5.89 31.25h20.22V.75H5.89v30.5z"/><path d="M16 22.878c-.207 0-.375-.12-.375-.268V.268C15.625.12 15.793 0 16 0s.375.12.375.268V22.61c0 .148-.168.268-.375.268zM16 32H5.515a.375.375 0 0 1-.375-.375v-4.561c0-.207.168-.375.375-.375H16c.207 0 .375.168.375.375v4.561A.375.375 0 0 1 16 32zm-10.11-.75h9.735v-3.811H5.89v3.811z"/><path d="M16 27.439H5.515a.375.375 0 0 1-.375-.375v-4.561c0-.207.168-.375.375-.375H16c.207 0 .375.168.375.375v4.561a.375.375 0 0 1-.375.375zm-10.11-.75h9.735v-3.811H5.89v3.811z"/><path d="M11.285 25.159h-1.056a.375.375 0 0 1 0-.75h1.056a.375.375 0 0 1 0 .75zM13.79 12.273a.375.375 0 0 1-.375-.375v-.918a.375.375 0 0 1 .75 0v.918a.375.375 0 0 1-.375.375zM18.21 16.834a.375.375 0 0 1-.375-.375v-.918a.375.375 0 0 1 .75 0v.918a.375.375 0 0 1-.375.375zM11.285 29.72h-1.056a.375.375 0 0 1 0-.75h1.056a.375.375 0 0 1 0 .75z"/></symbol><symbol id="icon-shopping-cart" viewBox="0 0 31 32"><path d="M11.613 27.29a.323.323 0 1 0 0 .646.323.323 0 0 0 0-.646zm-2.258.323a2.258 2.258 0 1 1 4.516 0 2.258 2.258 0 0 1-4.516 0zM25.806 27.29a.323.323 0 1 0 0 .646.323.323 0 0 0 0-.646zm-2.258.323a2.258 2.258 0 1 1 4.516 0 2.258 2.258 0 0 1-4.516 0zM.323 1.806c0-.534.433-.968.968-.968h5.161c.461 0 .858.326.949.778L8.537 7.29h21.141a.97.97 0 0 1 .951 1.149l-2.066 10.833a3.55 3.55 0 0 1-3.538 2.857H12.5a3.547 3.547 0 0 1-3.538-2.856L6.805 8.494a.68.68 0 0 1-.018-.092L5.66 2.773H1.292a.968.968 0 0 1-.968-.968zm8.601 7.42 1.935 9.67a1.613 1.613 0 0 0 1.613 1.298h12.58a1.617 1.617 0 0 0 1.612-1.295l.001-.003 1.844-9.67H8.925z"/></symbol><symbol id="icon-Right" viewBox="0 0 33 32"><path fill="#1e2e36" d="M16.533 32c8.837 0 16-7.163 16-16s-7.163-16-16-16-16 7.163-16 16 7.163 16 16 16z" style="fill:var(--color1, #1e2e36)"/><path fill="#fff" d="M20.675 15.861a.898.898 0 0 1-.245.62l-5.136 5.384c-.327.343-.856.343-1.183 0s-.326-.898 0-1.24l4.544-4.764-4.544-4.764c-.327-.342-.327-.898 0-1.24s.856-.343 1.183 0l5.136 5.384a.898.898 0 0 1 .245.62z" style="fill:var(--color2, #fff)"/></symbol><symbol id="icon-Left" viewBox="0 0 31 32"><path fill="none" stroke="#1e2e36" d="M15.5 31c8.284 0 15-6.716 15-15s-6.716-15-15-15C7.216 1 .5 7.716.5 16s6.716 15 15 15z" style="stroke:var(--color1, #1e2e36)"/><path d="M11.681 15.87c0-.21.078-.421.235-.581l4.919-5.048c.313-.321.82-.321 1.133 0s.313.841 0 1.163l-4.353 4.466 4.353 4.466c.313.321.313.842 0 1.163s-.82.321-1.133 0l-4.919-5.047a.83.83 0 0 1-.234-.581z"/></symbol><symbol id="icon-calendar" viewBox="0 0 32 32"><path d="M6.667 6.333C5.747 6.333 5 7.079 5 8v18.667c0 .921.746 1.667 1.667 1.667h18.667c.921 0 1.667-.746 1.667-1.667V8c0-.92-.746-1.667-1.667-1.667H6.667zM3 8a3.667 3.667 0 0 1 3.667-3.667h18.667A3.667 3.667 0 0 1 29.001 8v18.667a3.667 3.667 0 0 1-3.667 3.667H6.667A3.667 3.667 0 0 1 3 26.667V8z"/><path d="M21.333 1.667a1 1 0 0 1 1 1V8a1 1 0 0 1-2 0V2.667a1 1 0 0 1 1-1zM10.667 1.667a1 1 0 0 1 1 1V8a1 1 0 0 1-2 0V2.667a1 1 0 0 1 1-1zM3 13.333a1 1 0 0 1 1-1h24a1 1 0 0 1 0 2H4a1 1 0 0 1-1-1z"/></symbol><symbol id="icon-map-pin" viewBox="0 0 32 32"><path d="M16 2.333a11 11 0 0 0-11 11c0 4.265 2.766 8.354 5.726 11.479A39.556 39.556 0 0 0 16 29.443a39.556 39.556 0 0 0 5.274-4.631C24.234 21.687 27 17.598 27 13.333a11 11 0 0 0-11-11zm0 28.334-.555.832-.003-.002-.038-.025-.108-.074a37.412 37.412 0 0 1-1.794-1.343 41.446 41.446 0 0 1-4.228-3.865C6.234 22.981 3 18.404 3 13.336a13 13 0 0 1 26 0c0 5.069-3.234 9.646-6.274 12.854a41.446 41.446 0 0 1-5.625 4.927c-.17.123-.304.217-.397.281l-.108.074-.038.025-.003.002s-.001.001-.556-.831zm0 0 .555.832a1 1 0 0 1-1.11 0l.555-.832z"/><path d="M16 10.333a3 3 0 1 0 0 6 3 3 0 0 0 0-6zm-5 3a5 5 0 1 1 10.001.001A5 5 0 0 1 11 13.333z"/></symbol><symbol id="icon-smartphone" viewBox="0 0 32 32"><path stroke-linecap="round" stroke-linejoin="round" stroke-width="2" d="M22.667 2.667H9.334a2.667 2.667 0 0 0-2.667 2.667v21.333a2.667 2.667 0 0 0 2.667 2.667h13.333a2.667 2.667 0 0 0 2.667-2.667V5.334a2.667 2.667 0 0 0-2.667-2.667zM16 24h.013"/></symbol><symbol id="icon-up" viewBox="0 0 32 32"><path d="M26.811 14.27c0 5.971-4.84 10.811-10.811 10.811S5.189 20.241 5.189 14.27 10.029 3.459 16 3.459s10.811 4.84 10.811 10.811z"/><path fill="#fff" d="M16.306 10.623a.433.433 0 0 0-.612 0l-2.752 2.752a.433.433 0 1 0 .612.612L16 11.541l2.446 2.446a.433.433 0 1 0 .612-.612l-2.752-2.752zm.126 7.185v-6.88h-.865v6.88h.865z" style="fill:var(--color2, #fff)"/></symbol></defs></svg>