<!-- Generated by IcoMoon.io -->
<svg version="1.1" xmlns="http://www.w3.org/2000/svg" width="32" height="32" viewBox="0 0 32 32">
<title>armchair</title>
<path d="M24.287 16.852h-16.574c-0.796-0.001-1.441-0.646-1.442-1.442v-10.408c0.001-0.796 0.646-1.441 1.442-1.442h16.574c0.796 0.001 1.441 0.646 1.442 1.442v10.408c-0.001 0.796-0.646 1.441-1.442 1.442zM7.713 4.31c-0.382 0-0.692 0.31-0.692 0.692v10.408c0 0.382 0.31 0.692 0.692 0.692h16.574c0.382-0 0.692-0.31 0.692-0.692v-10.408c-0-0.382-0.31-0.692-0.692-0.692h-16.574z"></path>
<path d="M24.287 26.206h-16.574c-0.796-0.001-1.441-0.646-1.442-1.442v-7.22c0.001-0.796 0.646-1.441 1.442-1.442h16.574c0.796 0.001 1.441 0.646 1.442 1.442v7.22c-0.001 0.796-0.646 1.441-1.442 1.442zM7.713 16.852c-0.382 0-0.692 0.31-0.692 0.692v7.22c0 0.382 0.31 0.692 0.692 0.692h16.574c0.382-0 0.692-0.31 0.692-0.692v-7.22c-0-0.382-0.31-0.692-0.692-0.692l-16.574-0z"></path>
<path d="M30.558 26.206h-4.137c-0.796-0.001-1.441-0.646-1.442-1.442v-12.654c0.001-0.796 0.646-1.441 1.442-1.442h4.137c0.796 0.001 1.441 0.646 1.442 1.442v12.653c-0.001 0.796-0.646 1.441-1.442 1.442zM26.421 11.418c-0.382 0-0.692 0.31-0.692 0.692v12.653c0 0.382 0.31 0.692 0.692 0.692h4.137c0.382-0 0.692-0.31 0.692-0.692v-12.653c-0-0.382-0.31-0.692-0.692-0.692h-4.137z"></path>
<path d="M5.579 26.206h-4.137c-0.796-0.001-1.441-0.646-1.442-1.442v-12.653c0.001-0.796 0.646-1.441 1.442-1.442h4.137c0.796 0.001 1.441 0.646 1.442 1.442v12.653c-0.001 0.796-0.646 1.441-1.442 1.442zM1.442 11.418c-0.382 0-0.692 0.31-0.692 0.692v12.653c0 0.382 0.31 0.692 0.692 0.692h4.137c0.382-0 0.692-0.31 0.692-0.692v-12.653c-0-0.382-0.31-0.692-0.692-0.692h-4.137z"></path>
<path d="M25.354 21.529h-18.708c-0.207 0-0.375-0.168-0.375-0.375s0.168-0.375 0.375-0.375h18.708c0.207 0 0.375 0.168 0.375 0.375s-0.168 0.375-0.375 0.375z"></path>
<path d="M3.51 28.44c-0.621 0.001-1.163-0.422-1.313-1.025l-0.372-1.494c-0.050-0.201 0.072-0.404 0.273-0.455 0.030-0.007 0.060-0.011 0.091-0.011h2.642c0.207 0 0.375 0.168 0.375 0.375 0 0.031-0.004 0.061-0.011 0.091l-0.372 1.494c-0.15 0.603-0.691 1.026-1.312 1.025zM2.669 26.206l0.256 1.028c0.081 0.323 0.408 0.52 0.731 0.439 0.216-0.054 0.385-0.223 0.439-0.439l0.256-1.028h-1.682z"></path>
<path d="M28.49 28.44c-0.621 0.001-1.163-0.422-1.313-1.025l-0.372-1.493c-0.050-0.201 0.072-0.404 0.273-0.455 0.030-0.007 0.060-0.011 0.091-0.011h2.642c0.207 0 0.375 0.168 0.375 0.375 0 0.031-0.004 0.061-0.011 0.091l-0.372 1.493c-0.15 0.603-0.691 1.026-1.313 1.025zM27.648 26.206l0.256 1.028c0.081 0.323 0.408 0.52 0.731 0.439 0.216-0.054 0.385-0.223 0.439-0.439l0.256-1.028-1.682 0z"></path>
</svg>
