<!-- Generated by IcoMoon.io -->
<svg version="1.1" xmlns="http://www.w3.org/2000/svg" width="32" height="32" viewBox="0 0 32 32">
<title>bedroom</title>
<path fill="#44c697" d="M27.099 10.803h-22.198c-0.207 0-0.375-0.168-0.375-0.375v-7.789c0-0.207 0.168-0.375 0.375-0.375h22.198c0.207 0 0.375 0.168 0.375 0.375v7.789c-0 0.207-0.168 0.375-0.375 0.375zM5.276 10.053h21.448v-7.039h-21.448v7.039z"></path>
<path fill="#44c697" d="M25.378 10.803h-18.756c-0.207 0-0.375-0.168-0.375-0.375v-6.068c0-0.207 0.168-0.375 0.375-0.375h18.756c0.207 0 0.375 0.168 0.375 0.375v6.068c0 0.207-0.168 0.375-0.375 0.375zM6.997 10.053h18.006v-5.318h-18.006v5.318z"></path>
<path fill="#44c697" d="M14.869 10.803h-7.116c-0.831-0.001-1.505-0.675-1.506-1.506v-3.806c0.001-0.831 0.675-1.505 1.506-1.506h7.116c0.831 0.001 1.505 0.675 1.506 1.506v3.806c-0.001 0.831-0.675 1.505-1.506 1.506zM7.753 4.735c-0.417 0-0.755 0.339-0.756 0.756v3.806c0 0.417 0.339 0.755 0.756 0.756h7.116c0.417-0 0.756-0.339 0.756-0.756v-3.806c-0-0.417-0.339-0.756-0.756-0.756h-7.116z"></path>
<path fill="#44c697" d="M24.247 10.803h-7.116c-0.831-0.001-1.505-0.675-1.506-1.506v-3.806c0.001-0.831 0.675-1.505 1.506-1.506h7.116c0.831 0.001 1.505 0.675 1.506 1.506v3.806c-0.001 0.831-0.675 1.505-1.506 1.506zM17.131 4.735c-0.417 0-0.756 0.339-0.756 0.756v3.806c0 0.417 0.339 0.755 0.756 0.756h7.116c0.417-0 0.756-0.339 0.756-0.756v-3.806c-0-0.417-0.339-0.756-0.756-0.756h-7.116z"></path>
<path fill="#44c697" d="M27.371 29.736h-22.741c-0.831-0.001-1.505-0.675-1.506-1.506v-16.671c0.001-0.831 0.675-1.505 1.506-1.506h22.741c0.831 0.001 1.505 0.675 1.506 1.506v16.671c-0.001 0.831-0.675 1.505-1.506 1.506zM4.629 10.803c-0.417 0-0.756 0.339-0.756 0.756v16.671c0 0.417 0.339 0.755 0.756 0.756h22.741c0.417-0 0.755-0.339 0.756-0.756v-16.671c-0-0.417-0.339-0.755-0.756-0.756h-22.741z"></path>
<path fill="#44c697" d="M27.515 3.014h-23.030c-0.752-0.001-1.361-0.61-1.362-1.362v-0.291c0.001-0.752 0.61-1.361 1.362-1.362h23.030c0.752 0.001 1.361 0.61 1.362 1.362v0.291c-0.001 0.752-0.61 1.361-1.362 1.362zM4.485 0.75c-0.338 0-0.611 0.274-0.612 0.612v0.291c0 0.338 0.274 0.611 0.612 0.612h23.030c0.338-0 0.611-0.274 0.612-0.612v-0.291c-0-0.338-0.274-0.611-0.612-0.612h-23.030z"></path>
<path fill="#44c697" d="M27.515 32h-23.030c-0.752-0.001-1.361-0.61-1.362-1.362v-0.291c0.001-0.752 0.61-1.361 1.362-1.362h23.030c0.752 0.001 1.361 0.61 1.362 1.362v0.291c-0.001 0.752-0.61 1.361-1.362 1.362zM4.485 29.736c-0.338 0-0.611 0.274-0.612 0.612v0.291c0 0.338 0.274 0.611 0.612 0.612h23.030c0.338-0 0.611-0.274 0.612-0.612v-0.291c-0-0.338-0.274-0.611-0.612-0.612h-23.030z"></path>
</svg>
