<!-- Generated by IcoMoon.io -->
<svg version="1.1" xmlns="http://www.w3.org/2000/svg" width="30" height="32" viewBox="0 0 30 32">
<title>glanietc</title>
<path fill="#ffd001" d="M16.925 0c-7.737 2.633-14.264 8.001-16.925 16 2.631 7.907 9.096 13.336 16.925 16 6.962-5.416 10.758-9.766 13.551-16-4.009-2.716-5.693-4.114-8.943-8.317-4.354 2.041-8.145 4.419-11.502 8.23 1.205 1.732 3.205 3.349 4.823 4.677 2.357-1.748 4.155-3.451 5.319-4.912 0.73 0.9 1.553 1.499 2.338 2-2.025 3.477-4.298 5.386-7.105 7.209-4.216-2.252-7.605-6.15-9.252-9.447 3.087-5.136 7.929-8.604 13.431-10.537-0.891-1.575-2.060-3.042-2.66-4.903z"></path>
</svg>
