<!-- Generated by IcoMoon.io -->
<svg version="1.1" xmlns="http://www.w3.org/2000/svg" width="32" height="32" viewBox="0 0 32 32">
<title>kitchen</title>
<path d="M21.692 29.162h-11.384c-0.207 0-0.375-0.168-0.375-0.375v-8.718c0-0.207 0.168-0.375 0.375-0.375h11.384c0.207 0 0.375 0.168 0.375 0.375v8.718c-0 0.207-0.168 0.375-0.375 0.375zM10.683 28.412h10.634v-7.968h-10.634v7.968z"></path>
<path d="M21.692 30.766h-11.384c-0.207 0-0.375-0.168-0.375-0.375v-1.605c0-0.207 0.168-0.375 0.375-0.375h11.384c0.207 0 0.375 0.168 0.375 0.375v1.605c-0 0.207-0.168 0.375-0.375 0.375zM10.683 30.016h10.634v-0.855h-10.634v0.855z"></path>
<path d="M21.692 20.443h-11.384c-0.207 0-0.375-0.168-0.375-0.375v-3.696c0-0.207 0.168-0.375 0.375-0.375h11.384c0.207 0 0.375 0.168 0.375 0.375v3.696c-0 0.207-0.168 0.375-0.375 0.375zM10.683 19.693h10.634v-2.946h-10.634v2.946z"></path>
<path d="M16 19.435c-0.671 0-1.215-0.544-1.215-1.215s0.544-1.215 1.215-1.215c0.671 0 1.215 0.544 1.215 1.215s-0.544 1.215-1.215 1.215zM16 17.755c-0.257 0-0.465 0.208-0.465 0.465s0.208 0.465 0.465 0.465c0.257 0 0.465-0.208 0.465-0.465s-0.208-0.465-0.465-0.465z"></path>
<path d="M19.157 19.435c-0.671 0-1.215-0.544-1.215-1.215s0.544-1.215 1.215-1.215c0.671 0 1.215 0.544 1.215 1.215s-0.544 1.215-1.215 1.215zM19.157 17.755c-0.257 0-0.465 0.208-0.465 0.465s0.208 0.465 0.465 0.465c0.257 0 0.465-0.208 0.465-0.465s-0.208-0.465-0.465-0.465z"></path>
<path d="M12.843 19.435c-0.671 0-1.215-0.544-1.215-1.215s0.544-1.215 1.215-1.215 1.215 0.544 1.215 1.215c-0.001 0.671-0.544 1.215-1.215 1.215zM12.843 17.755c-0.257 0-0.465 0.208-0.465 0.465s0.208 0.465 0.465 0.465c0.257 0 0.465-0.208 0.465-0.465s-0.208-0.465-0.465-0.465z"></path>
<path d="M19.491 22.636h-6.981c-0.487-0-0.882-0.395-0.882-0.882s0.395-0.881 0.882-0.882h6.981c0.487-0 0.882 0.394 0.882 0.882s-0.394 0.882-0.882 0.882c-0 0-0 0-0.001 0zM12.509 21.622c-0.073 0-0.132 0.059-0.132 0.132s0.059 0.132 0.132 0.132h6.981c0.073 0 0.132-0.059 0.132-0.132s-0.059-0.132-0.132-0.132c-0 0-0 0-0 0h-6.981z"></path>
<path d="M19.157 27.964h-6.315c-0.207 0-0.375-0.168-0.375-0.375v-5.329c0-0.207 0.168-0.375 0.375-0.375h6.315c0.207 0 0.375 0.168 0.375 0.375v5.329c0 0.207-0.168 0.375-0.375 0.375zM13.218 27.214h5.565v-4.579h-5.565v4.579z"></path>
<path d="M13.501 16.747c-0.207 0-0.375-0.168-0.375-0.375v-0.931c0-0.207 0.168-0.375 0.375-0.375s0.375 0.168 0.375 0.375v0.931c0 0.207-0.168 0.375-0.375 0.375z"></path>
<path d="M15.279 16.747c-0.207 0-0.375-0.168-0.375-0.375v-0.556h-0.5c-0.207 0-0.375-0.168-0.375-0.375s0.168-0.375 0.375-0.375h0.875c0.207 0 0.375 0.168 0.375 0.375v0.931c-0 0.207-0.168 0.375-0.375 0.375z"></path>
<path d="M11.723 16.747c-0.207 0-0.375-0.168-0.375-0.375v-0.931c0-0.207 0.168-0.375 0.375-0.375h0.875c0.207 0 0.375 0.168 0.375 0.375s-0.168 0.375-0.375 0.375h-0.5v0.556c0 0.207-0.168 0.375-0.375 0.375z"></path>
<path d="M18.499 16.747c-0.207 0-0.375-0.168-0.375-0.375v-0.931c0-0.207 0.168-0.375 0.375-0.375s0.375 0.168 0.375 0.375v0.931c0 0.207-0.168 0.375-0.375 0.375z"></path>
<path d="M16.721 16.747c-0.207 0-0.375-0.168-0.375-0.375v-0.931c0-0.207 0.168-0.375 0.375-0.375h0.875c0.207 0 0.375 0.168 0.375 0.375s-0.168 0.375-0.375 0.375h-0.5v0.556c0 0.207-0.168 0.375-0.375 0.375z"></path>
<path d="M20.277 16.747c-0.207 0-0.375-0.168-0.375-0.375v-0.556h-0.5c-0.207 0-0.375-0.168-0.375-0.375s0.168-0.375 0.375-0.375h0.875c0.207 0 0.375 0.168 0.375 0.375v0.931c-0 0.207-0.168 0.375-0.375 0.375z"></path>
<path d="M23.505 18.113h-0.671c-0.207 0-0.375-0.168-0.375-0.375s0.168-0.375 0.375-0.375h0.671c0.207 0 0.375 0.168 0.375 0.375s-0.168 0.375-0.375 0.375z"></path>
<path d="M24.646 30.766h-2.954c-0.207 0-0.375-0.168-0.375-0.375v-14.019c0-0.207 0.168-0.375 0.375-0.375h2.954c0.207 0 0.375 0.168 0.375 0.375v14.019c-0 0.207-0.168 0.375-0.375 0.375zM22.067 30.016h2.204v-13.269h-2.204v13.269z"></path>
<path d="M31.625 23.757h-6.979c-0.207 0-0.375-0.168-0.375-0.375v-7.010c0-0.207 0.168-0.375 0.375-0.375h6.979c0.207 0 0.375 0.168 0.375 0.375v7.010c0 0.207-0.168 0.375-0.375 0.375zM25.021 23.007h6.229v-6.26h-6.229v6.26z"></path>
<path d="M29.035 18.113h-1.799c-0.207 0-0.375-0.168-0.375-0.375s0.168-0.375 0.375-0.375h1.799c0.207 0 0.375 0.168 0.375 0.375s-0.168 0.375-0.375 0.375z"></path>
<path d="M6.241 18.113h-1.799c-0.207 0-0.375-0.168-0.375-0.375s0.168-0.375 0.375-0.375h1.799c0.207 0 0.375 0.168 0.375 0.375s-0.168 0.375-0.375 0.375z"></path>
<path d="M31.625 30.766h-6.979c-0.207 0-0.375-0.168-0.375-0.375v-7.010c0-0.207 0.168-0.375 0.375-0.375h6.979c0.207 0 0.375 0.168 0.375 0.375v7.010c0 0.207-0.168 0.375-0.375 0.375zM25.021 30.016h6.229v-6.26h-6.229v6.26z"></path>
<path d="M29.035 25.122h-1.799c-0.207 0-0.375-0.168-0.375-0.375s0.168-0.375 0.375-0.375h1.799c0.207 0 0.375 0.168 0.375 0.375s-0.168 0.375-0.375 0.375z"></path>
<path d="M5.341 30.766h-4.966c-0.207 0-0.375-0.168-0.375-0.375v-10.323c0-0.207 0.168-0.375 0.375-0.375h4.966c0.207 0 0.375 0.168 0.375 0.375v10.323c0 0.207-0.168 0.375-0.375 0.375zM0.75 30.016h4.216v-9.573h-4.216v9.573z"></path>
<path d="M10.308 30.766h-4.966c-0.207 0-0.375-0.168-0.375-0.375v-10.323c0-0.207 0.168-0.375 0.375-0.375h4.966c0.207 0 0.375 0.168 0.375 0.375v10.323c0 0.207-0.168 0.375-0.375 0.375zM5.716 30.016h4.216v-9.573h-4.216v9.573z"></path>
<path d="M6.527 26.229c-0.207 0-0.375-0.168-0.375-0.375v-1.248c0-0.207 0.168-0.375 0.375-0.375s0.375 0.168 0.375 0.375v1.248c0 0.207-0.168 0.375-0.375 0.375z"></path>
<path d="M4.156 26.229c-0.207 0-0.375-0.168-0.375-0.375v-1.248c0-0.207 0.168-0.375 0.375-0.375s0.375 0.168 0.375 0.375v1.248c0 0.207-0.168 0.375-0.375 0.375z"></path>
<path d="M10.308 20.443h-9.933c-0.207 0-0.375-0.168-0.375-0.375v-3.696c0-0.207 0.168-0.375 0.375-0.375h9.933c0.207 0 0.375 0.168 0.375 0.375v3.696c0 0.207-0.168 0.375-0.375 0.375zM0.75 19.693h9.183v-2.946h-9.183v2.946z"></path>
<path d="M21.269 8.889h-10.539c-0.44-0.001-0.797-0.357-0.798-0.798v-1.077c0-0.44 0.357-0.797 0.798-0.798h10.539c0.44 0 0.797 0.357 0.798 0.798v1.077c-0 0.44-0.357 0.797-0.798 0.798zM10.731 6.966c-0.026 0-0.048 0.021-0.048 0.048v1.077c0 0.026 0.021 0.048 0.048 0.048h10.539c0.026-0 0.048-0.021 0.048-0.048v-1.077c-0-0.026-0.021-0.048-0.048-0.048h-10.539z"></path>
<path d="M20.488 6.966h-8.975c-0.436 0-0.79-0.354-0.79-0.79 0-0.243 0.112-0.473 0.303-0.622l0.288-0.225c1.148-0.892 1.817-2.266 1.813-3.72 0-0.207 0.168-0.375 0.375-0.375h4.998c0.207 0 0.375 0.168 0.375 0.375-0.004 1.454 0.665 2.827 1.813 3.72l0.288 0.225c0.344 0.269 0.404 0.765 0.136 1.109-0.15 0.192-0.379 0.303-0.622 0.303zM13.864 1.984c-0.102 1.55-0.862 2.982-2.088 3.935l-0.288 0.225c-0.017 0.014-0.021 0.039-0.007 0.056 0.008 0.010 0.019 0.015 0.032 0.015h8.975c0.022 0 0.040-0.018 0.040-0.040 0-0.012-0.006-0.024-0.015-0.032h-0l-0.288-0.225c-1.226-0.953-1.986-2.385-2.088-3.935l-4.273-0z"></path>
<path d="M30.464 8.889h-5.968c-0.519 0-0.94-0.421-0.94-0.94s0.421-0.94 0.94-0.94h5.968c0.519 0 0.94 0.421 0.94 0.94s-0.421 0.94-0.94 0.94zM24.497 7.759c-0.105 0-0.19 0.085-0.19 0.19s0.085 0.19 0.19 0.19h5.968c0.105 0 0.19-0.085 0.19-0.19s-0.085-0.19-0.19-0.19h-5.968z"></path>
<path d="M7.503 8.889h-5.968c-0.519 0-0.94-0.421-0.94-0.94s0.421-0.94 0.94-0.94h5.968c0.519 0 0.94 0.421 0.94 0.94s-0.421 0.94-0.94 0.94zM1.536 7.759c-0.105 0-0.19 0.085-0.19 0.19s0.085 0.19 0.19 0.19h5.968c0.105 0 0.19-0.085 0.19-0.19s-0.085-0.19-0.19-0.19h-5.968z"></path>
<path d="M6.905 7.759h-1.525c-0.207 0-0.375-0.168-0.375-0.375v-1.289c0-0.207 0.168-0.375 0.375-0.375h1.525c0.207 0 0.375 0.168 0.375 0.375v1.289c0 0.207-0.168 0.375-0.375 0.375zM5.754 7.009h0.775v-0.539h-0.775v0.539z"></path>
<path d="M7.264 6.47h-2.244c-0.207 0-0.375-0.168-0.375-0.375s0.168-0.375 0.375-0.375h2.244c0.207 0 0.375 0.168 0.375 0.375s-0.168 0.375-0.375 0.375z"></path>
<path d="M3.66 7.759h-1.525c-0.207 0-0.375-0.168-0.375-0.375v-1.289c0-0.207 0.168-0.375 0.375-0.375h1.525c0.207 0 0.375 0.168 0.375 0.375v1.289c0 0.207-0.168 0.375-0.375 0.375zM2.51 7.009h0.775v-0.539h-0.775l-0 0.539z"></path>
<path d="M4.019 6.47h-2.244c-0.207 0-0.375-0.168-0.375-0.375s0.168-0.375 0.375-0.375h2.244c0.207 0 0.375 0.168 0.375 0.375s-0.168 0.375-0.375 0.375z"></path>
<path d="M6.905 6.47h-1.525c-0.207 0-0.375-0.168-0.375-0.375v-1.289c0-0.207 0.168-0.375 0.375-0.375h1.525c0.207 0 0.375 0.168 0.375 0.375v1.289c0 0.207-0.168 0.375-0.375 0.375zM5.754 5.72h0.775v-0.539h-0.775v0.539z"></path>
<path d="M7.264 5.181h-2.244c-0.207 0-0.375-0.168-0.375-0.375s0.168-0.375 0.375-0.375h2.244c0.207 0 0.375 0.168 0.375 0.375s-0.168 0.375-0.375 0.375z"></path>
<path d="M3.66 6.47h-1.525c-0.207 0-0.375-0.168-0.375-0.375v-1.289c0-0.207 0.168-0.375 0.375-0.375h1.525c0.207 0 0.375 0.168 0.375 0.375v1.289c0 0.207-0.168 0.375-0.375 0.375zM2.51 5.72h0.775v-0.539h-0.775l-0 0.539z"></path>
<path d="M4.019 5.181h-2.244c-0.207 0-0.375-0.168-0.375-0.375s0.168-0.375 0.375-0.375h2.244c0.207 0 0.375 0.168 0.375 0.375s-0.168 0.375-0.375 0.375z"></path>
<path d="M27.48 7.759c-1.337-0-2.42-1.084-2.42-2.421 0-0.455 0.129-0.901 0.371-1.287 0.069-0.109 0.189-0.175 0.317-0.175h3.464c0.129 0 0.249 0.066 0.317 0.175 0.711 1.132 0.37 2.626-0.762 3.337-0.386 0.242-0.832 0.371-1.287 0.371zM25.97 4.626c-0.393 0.834-0.035 1.83 0.799 2.223s1.829 0.035 2.223-0.799c0.212-0.451 0.212-0.973 0-1.423l-3.022-0z"></path>
<path d="M27.445 4.626c-0.207 0-0.375-0.168-0.375-0.375v-2.413c0-0.207 0.168-0.375 0.375-0.375s0.375 0.168 0.375 0.375v2.413c0 0.207-0.168 0.375-0.375 0.375z"></path>
<path d="M27.445 4.626c-0.207 0-0.375-0.168-0.375-0.375 0-0.099 0.040-0.195 0.11-0.265l1.298-1.298c0.148-0.145 0.385-0.143 0.53 0.005 0.143 0.146 0.143 0.379-0 0.525l-1.298 1.298c-0.070 0.070-0.166 0.11-0.265 0.11z"></path>
<path d="M27.445 4.626c-0.099 0-0.195-0.039-0.265-0.11l-1.298-1.298c-0.148-0.145-0.151-0.382-0.006-0.53s0.382-0.151 0.53-0.006c0.002 0.002 0.004 0.004 0.006 0.006l1.298 1.298c0.146 0.146 0.146 0.384 0 0.53-0.070 0.070-0.166 0.11-0.265 0.11z"></path>
<path d="M19.474 15.816h-1.829c-1.037-0.001-1.877-0.841-1.878-1.879v-0.881c0-0.207 0.168-0.375 0.375-0.375h4.836c0.207 0 0.375 0.168 0.375 0.375v0.881c-0.001 1.037-0.842 1.877-1.878 1.879zM16.517 13.431v0.507c0.001 0.623 0.506 1.128 1.128 1.128h1.829c0.623-0.001 1.128-0.505 1.128-1.128v-0.507h-4.086z"></path>
<path d="M21.692 14.092h-0.714c-0.207 0-0.375-0.168-0.375-0.375s0.168-0.375 0.375-0.375h0.714c0.207 0 0.375 0.168 0.375 0.375s-0.168 0.375-0.375 0.375z"></path>
<path d="M16.020 14.092h-0.714c-0.207 0-0.375-0.168-0.375-0.375s0.168-0.375 0.375-0.375h0.714c0.207 0 0.375 0.168 0.375 0.375s-0.168 0.375-0.375 0.375z"></path>
<path d="M20.978 13.431h-4.836c-0.207 0-0.375-0.168-0.375-0.375 0-0.076 0.023-0.15 0.066-0.212 0.525-0.763 1.57-1.238 2.727-1.238s2.202 0.474 2.727 1.238c0.117 0.171 0.074 0.404-0.097 0.521-0.062 0.043-0.137 0.066-0.212 0.066zM17.149 12.681h2.822c-0.891-0.433-1.931-0.433-2.822 0z"></path>
<path d="M18.102 12.385c-0.092 0-0.181-0.034-0.249-0.095-0.44-0.391-0.48-1.064-0.089-1.504s1.064-0.48 1.504-0.089c0.44 0.391 0.48 1.064 0.089 1.504-0.028 0.032-0.058 0.061-0.089 0.089-0.154 0.139-0.391 0.126-0.53-0.027s-0.126-0.391 0.028-0.53c0.001-0.001 0.002-0.002 0.004-0.003 0.13-0.115 0.143-0.314 0.027-0.445s-0.314-0.143-0.445-0.028c-0.13 0.115-0.143 0.315-0.028 0.445 0.009 0.010 0.018 0.019 0.027 0.027 0.155 0.138 0.169 0.375 0.031 0.529-0.071 0.080-0.173 0.126-0.28 0.126z"></path>
<path d="M4.449 16.747h-1.584c-0.207 0-0.375-0.168-0.375-0.375v-4.028c0-0.207 0.168-0.375 0.375-0.375h1.584c0.207 0 0.375 0.168 0.375 0.375v4.028c0 0.207-0.168 0.375-0.375 0.375zM3.24 15.997h0.834v-3.278h-0.834v3.278z"></path>
<path d="M2.865 16.747h-1.584c-0.207 0-0.375-0.168-0.375-0.375v-4.028c0-0.207 0.168-0.375 0.375-0.375h1.584c0.207 0 0.375 0.168 0.375 0.375v4.028c0 0.207-0.168 0.375-0.375 0.375zM1.656 15.997h0.834v-3.278h-0.834l-0 3.278z"></path>
<path d="M7.928 16.747h-0.707c-0.716-0.001-1.295-0.581-1.296-1.296v-1.315c0-0.207 0.168-0.375 0.375-0.375h2.55c0.207 0 0.375 0.168 0.375 0.375v1.315c-0.001 0.716-0.581 1.295-1.296 1.296zM6.674 14.511v0.94c0 0.302 0.245 0.546 0.546 0.546h0.707c0.302-0 0.546-0.245 0.546-0.546v-0.94l-1.8-0z"></path>
<path d="M9.068 14.511h-2.988c-0.391-0-0.708-0.317-0.708-0.708v-0.389c0-0.391 0.317-0.708 0.708-0.708h2.988c0.391 0 0.708 0.317 0.708 0.708v0.389c-0 0.391-0.317 0.708-0.708 0.708zM6.122 13.761h2.905v-0.306h-2.905v0.306z"></path>
<path d="M24.95 16.747h-1.931c-0.207 0-0.375-0.168-0.375-0.375v-2.639c0-0.207 0.168-0.375 0.375-0.375h1.931c0.207 0 0.375 0.168 0.375 0.375v2.639c-0 0.207-0.168 0.375-0.375 0.375zM23.395 15.997h1.181v-1.889h-1.181v1.889z"></path>
<path d="M24.95 14.108h-1.931c-0.207 0-0.375-0.168-0.375-0.375v-1.153c0-0.207 0.168-0.375 0.375-0.375h1.931c0.207 0 0.375 0.168 0.375 0.375v1.153c-0 0.207-0.168 0.375-0.375 0.375zM23.395 13.358h1.181v-0.403h-1.181v0.403z"></path>
<path d="M29.58 15.479c-0.613 0-1.093-0.59-1.093-1.343s0.48-1.343 1.093-1.343c0.613 0 1.093 0.59 1.093 1.343s-0.48 1.343-1.093 1.343zM29.58 13.543c-0.162 0-0.343 0.253-0.343 0.593s0.181 0.593 0.343 0.593 0.343-0.253 0.343-0.593c0-0.339-0.181-0.593-0.343-0.593z"></path>
<path d="M29.58 13.536c-0.175 0-0.326-0.121-0.366-0.291l-0.573-2.5c-0.119-0.518 0.205-1.035 0.724-1.154s1.035 0.205 1.154 0.724c0.032 0.142 0.032 0.289 0 0.43l-0.573 2.5c-0.039 0.17-0.191 0.291-0.366 0.291zM29.58 10.316c-0.118 0-0.213 0.095-0.213 0.213 0 0.016 0.002 0.032 0.005 0.048l0.208 0.906 0.208-0.906c0.026-0.115-0.045-0.229-0.16-0.255-0.016-0.004-0.032-0.005-0.048-0.005z"></path>
<path d="M26.883 13.536c-0.175 0-0.326-0.121-0.366-0.291l-0.573-2.5c-0.119-0.518 0.205-1.035 0.724-1.154s1.035 0.205 1.154 0.724c0.032 0.142 0.032 0.289 0 0.43l-0.573 2.5c-0.039 0.17-0.191 0.291-0.366 0.291zM26.883 10.316c-0.118 0-0.213 0.095-0.213 0.213 0 0.016 0.002 0.032 0.005 0.048l0.208 0.906 0.208-0.906c0.026-0.115-0.045-0.229-0.16-0.255-0.016-0.004-0.032-0.005-0.048-0.005z"></path>
<path d="M27.744 14.748h-1.723c-0.187 0-0.345-0.137-0.371-0.322-0.065-0.433 0.062-0.873 0.347-1.205 0.242-0.28 0.565-0.44 0.886-0.44s0.644 0.16 0.886 0.44c0.285 0.332 0.411 0.772 0.346 1.205-0.026 0.185-0.185 0.322-0.371 0.322zM26.411 13.998h0.942c-0.028-0.105-0.080-0.203-0.152-0.285-0.095-0.11-0.221-0.181-0.32-0.181s-0.224 0.071-0.32 0.181c-0.071 0.083-0.123 0.18-0.151 0.285z"></path>
</svg>
