<!-- Generated by IcoMoon.io -->
<svg version="1.1" xmlns="http://www.w3.org/2000/svg" width="32" height="32" viewBox="0 0 32 32">
<title>living-room</title>
<path d="M14.933 27.897h-9.568c-0.796-0.001-1.441-0.646-1.442-1.442v-3.717c0.001-0.796 0.646-1.441 1.442-1.442h9.568c0.796 0.001 1.441 0.646 1.442 1.442v3.717c-0.001 0.796-0.646 1.441-1.442 1.442zM5.365 22.046c-0.382 0-0.692 0.31-0.692 0.692v3.717c0 0.382 0.31 0.692 0.692 0.692h9.568c0.382-0 0.692-0.31 0.692-0.692v-3.717c-0-0.382-0.31-0.692-0.692-0.692h-9.568z"></path>
<path d="M3.231 27.897h-1.788c-0.796-0.001-1.441-0.646-1.442-1.442v-7.116c0.001-0.796 0.646-1.441 1.442-1.442h1.788c0.796 0.001 1.441 0.646 1.442 1.442v7.116c-0.001 0.796-0.646 1.441-1.442 1.442v0zM1.442 18.647c-0.382 0-0.692 0.31-0.692 0.692v7.116c0 0.382 0.31 0.692 0.692 0.692h1.788c0.382-0 0.692-0.31 0.692-0.692v-7.116c-0-0.382-0.31-0.692-0.692-0.692h-1.788z"></path>
<path d="M27.702 24.972h-23.405c-0.207 0-0.375-0.168-0.375-0.375s0.168-0.375 0.375-0.375h23.405c0.207 0 0.375 0.168 0.375 0.375s-0.168 0.375-0.375 0.375z"></path>
<path d="M14.933 22.046h-9.568c-0.796-0.001-1.441-0.646-1.442-1.442v-5.711c0.001-0.796 0.646-1.441 1.442-1.442h9.568c0.796 0.001 1.441 0.646 1.442 1.442v5.711c-0.001 0.796-0.646 1.441-1.442 1.442zM5.365 14.201c-0.382 0-0.692 0.31-0.692 0.692v5.711c0 0.382 0.31 0.692 0.692 0.692h9.568c0.382-0 0.692-0.31 0.692-0.692v-5.711c-0-0.382-0.31-0.692-0.692-0.692l-9.568-0z"></path>
<path d="M26.635 22.046h-9.568c-0.796-0.001-1.441-0.646-1.442-1.442v-5.711c0.001-0.796 0.646-1.441 1.442-1.442h9.568c0.796 0.001 1.441 0.646 1.442 1.442v5.711c-0.001 0.796-0.646 1.441-1.442 1.442v0zM17.067 14.201c-0.382 0-0.692 0.31-0.692 0.692v5.711c0 0.382 0.31 0.692 0.692 0.692h9.568c0.382-0 0.692-0.31 0.692-0.692v-5.711c-0-0.382-0.31-0.692-0.692-0.692l-9.568-0z"></path>
<path d="M26.635 27.897h-9.568c-0.796-0.001-1.441-0.646-1.442-1.442v-3.717c0.001-0.796 0.646-1.441 1.442-1.442h9.568c0.796 0.001 1.441 0.646 1.442 1.442v3.717c-0.001 0.796-0.646 1.441-1.442 1.442v0zM17.067 22.046c-0.382 0-0.692 0.31-0.692 0.692v3.717c0 0.382 0.31 0.692 0.692 0.692h9.568c0.382-0 0.692-0.31 0.692-0.692v-3.717c-0-0.382-0.31-0.692-0.692-0.692h-9.568z"></path>
<path d="M30.558 27.897h-1.788c-0.796-0.001-1.441-0.646-1.442-1.442v-7.116c0.001-0.796 0.646-1.441 1.442-1.442h1.788c0.796 0.001 1.441 0.646 1.442 1.442v7.116c-0.001 0.796-0.646 1.441-1.442 1.442zM28.769 18.647c-0.382 0-0.692 0.31-0.692 0.692v7.116c0 0.382 0.31 0.692 0.692 0.692h1.788c0.382-0 0.692-0.31 0.692-0.692v-7.116c-0-0.382-0.31-0.692-0.692-0.692h-1.788z"></path>
<path d="M16.877 22.046h-1.753c-0.207 0-0.375-0.168-0.375-0.375s0.168-0.375 0.375-0.375h1.753c0.207 0 0.375 0.168 0.375 0.375s-0.168 0.375-0.375 0.375z"></path>
<path d="M22.864 12.364h-13.728c-0.207 0-0.375-0.168-0.375-0.375v-8.909c0-0.207 0.168-0.375 0.375-0.375h13.728c0.207 0 0.375 0.168 0.375 0.375v8.909c0 0.207-0.168 0.375-0.375 0.375zM9.511 11.614h12.978v-8.16h-12.978v8.16z"></path>
<path d="M21.615 11.115h-11.23c-0.207 0-0.375-0.168-0.375-0.375v-6.411c0-0.207 0.168-0.375 0.375-0.375h11.23c0.207 0 0.375 0.168 0.375 0.375v6.411c-0 0.207-0.168 0.375-0.375 0.375zM10.76 10.365h10.48v-5.661h-10.48v5.661z"></path>
<path d="M11.729 9.741c-0.207 0-0.375-0.168-0.375-0.375 0-0.099 0.040-0.195 0.11-0.265l1.928-1.928c0.146-0.146 0.384-0.146 0.53 0l1.17 1.17c0.146 0.146 0.146 0.384 0 0.53s-0.384 0.146-0.53 0l-0.905-0.905-1.663 1.663c-0.070 0.070-0.166 0.11-0.265 0.11v0z"></path>
<path d="M20.271 9.722c-0.099 0-0.195-0.039-0.265-0.11-0.456-0.456-0.913-0.913-1.369-1.37-0.514-0.513-1.027-1.027-1.54-1.54l-0.241-0.24c-0.076-0.076-0.152-0.151-0.227-0.227l-2.087 2.087c-0.146 0.146-0.384 0.146-0.53 0s-0.146-0.384 0-0.53l2.352-2.352c0.070-0.070 0.166-0.11 0.265-0.11h0c0.1 0 0.195 0.040 0.265 0.11 0.164 0.164 0.328 0.328 0.492 0.492l0.241 0.241c0.513 0.514 1.026 1.027 1.54 1.54 0.456 0.457 0.912 0.913 1.369 1.37 0.146 0.146 0.146 0.384 0 0.53-0.070 0.070-0.166 0.11-0.265 0.11v0z"></path>
<path d="M18.902 8.352c-0.099 0-0.195-0.039-0.265-0.11-0.514-0.514-1.028-1.027-1.541-1.541-0.107-0.107-0.139-0.267-0.082-0.407 0.326-0.795 1.234-1.175 2.030-0.85s1.175 1.234 0.85 2.030c-0.158 0.386-0.464 0.692-0.85 0.85-0.045 0.019-0.093 0.028-0.142 0.028v0zM17.83 6.375c0.378 0.378 0.756 0.756 1.134 1.134 0.345-0.282 0.396-0.79 0.114-1.134s-0.79-0.396-1.134-0.114c-0.042 0.034-0.080 0.072-0.114 0.114z"></path>
<path d="M29.664 29.295c-0.453 0.001-0.848-0.308-0.957-0.748l-0.233-0.934c-0.050-0.201 0.072-0.404 0.273-0.455 0.030-0.007 0.060-0.011 0.091-0.011h1.653c0.207 0 0.375 0.168 0.375 0.375 0 0.031-0.004 0.061-0.011 0.091l-0.233 0.934c-0.109 0.44-0.504 0.748-0.957 0.748v0zM29.317 27.897l0.117 0.468c0.032 0.127 0.16 0.204 0.287 0.172 0.085-0.021 0.151-0.087 0.172-0.172l0.117-0.468-0.693 0z"></path>
<path d="M2.336 29.295c-0.453 0.001-0.848-0.308-0.957-0.748l-0.233-0.934c-0.050-0.201 0.072-0.404 0.273-0.455 0.030-0.007 0.060-0.011 0.091-0.011h1.653c0.207 0 0.375 0.168 0.375 0.375 0 0.031-0.004 0.061-0.011 0.091l-0.233 0.934c-0.109 0.44-0.504 0.748-0.957 0.748v0zM1.99 27.897l0.117 0.468c0.032 0.127 0.16 0.204 0.287 0.172 0.085-0.021 0.151-0.087 0.172-0.172l0.117-0.468-0.693 0z"></path>
</svg>
