<!-- Generated by IcoMoon.io -->
<svg version="1.1" xmlns="http://www.w3.org/2000/svg" width="154" height="32" viewBox="0 0 154 32">
<title>logo-top1</title>
<path fill="#44c697" d="M13.582 12.582h24.128v-3.405h-24.128v-5.745h24.128v-3.405h-25.986c-0.864 0-1.57 0.702-1.57 1.56v16.767h3.428v-5.771z"></path>
<path fill="#1e2e36" d="M41.636 0h-1.884v18.327h3.428v-16.767c0.026-0.858-0.68-1.56-1.544-1.56z"></path>
<path fill="#1e2e36" d="M45.901 11.932v9.098h-38.469v-9.098h-5.469c-1.099 0-1.963 0.884-1.963 1.95v5.173c0 1.092 0.89 1.95 1.963 1.95h1.256l0.55 6.395v4.601h1.413l1.649-4.601h39.673l1.649 4.601h1.413v-4.601l0.55-6.395h1.256c1.099 0 1.963-0.884 1.963-1.95v-5.173c0-1.092-0.89-1.95-1.963-1.95h-5.469z"></path>
<path fill="#44c697" d="M62.928 20.907h-2.181v-10.245h7.25v1.92h-5.069v2.166h4.961v1.92h-4.961v4.239z"></path>
<path fill="#1e2e36" d="M76.434 20.907h-1.951v-0.937c-0.666 0.748-1.536 1.121-2.611 1.121-0.799 0-1.398-0.205-1.797-0.614s-0.599-0.983-0.599-1.72v-5.268h1.951v4.5c0 0.911 0.456 1.367 1.367 1.367 0.686 0 1.249-0.282 1.69-0.845v-5.023h1.951v7.419zM80.322 20.907h-1.951v-7.419h1.951v1.014c0.276-0.348 0.63-0.635 1.060-0.86s0.865-0.338 1.306-0.338v1.905c-0.133-0.031-0.312-0.046-0.538-0.046-0.328 0-0.676 0.082-1.044 0.246s-0.63 0.364-0.783 0.599v4.9zM90.864 20.907h-1.951v-4.485c0-0.922-0.456-1.382-1.367-1.382-0.707 0-1.27 0.292-1.69 0.876v4.992h-1.951v-7.419h1.951v0.968c0.645-0.768 1.51-1.152 2.596-1.152 0.799 0 1.398 0.21 1.797 0.63 0.41 0.42 0.614 0.998 0.614 1.736v5.238zM93.769 12.689c-0.317 0-0.594-0.113-0.829-0.338-0.225-0.236-0.338-0.512-0.338-0.829s0.113-0.589 0.338-0.814c0.236-0.225 0.512-0.338 0.829-0.338 0.328 0 0.604 0.113 0.829 0.338s0.338 0.497 0.338 0.814c0 0.317-0.113 0.594-0.338 0.829-0.225 0.225-0.502 0.338-0.829 0.338zM94.752 20.907h-1.951v-7.419h1.951v7.419zM99.174 21.091c-0.686 0-1.208-0.174-1.567-0.522s-0.538-0.85-0.538-1.505v-3.871h-1.229v-1.705h1.229v-2.028h1.966v2.028h1.505v1.705h-1.505v3.348c0 0.236 0.061 0.43 0.184 0.584s0.287 0.23 0.492 0.23c0.307 0 0.532-0.072 0.676-0.215l0.415 1.475c-0.358 0.317-0.901 0.476-1.628 0.476zM108.834 20.907h-1.951v-0.937c-0.666 0.748-1.536 1.121-2.611 1.121-0.799 0-1.398-0.205-1.797-0.614s-0.599-0.983-0.599-1.72v-5.268h1.951v4.5c0 0.911 0.456 1.367 1.367 1.367 0.686 0 1.249-0.282 1.69-0.845v-5.023h1.951v7.419zM112.722 20.907h-1.951v-7.419h1.951v1.014c0.276-0.348 0.63-0.635 1.060-0.86s0.865-0.338 1.306-0.338v1.905c-0.133-0.031-0.312-0.046-0.538-0.046-0.328 0-0.676 0.082-1.044 0.246s-0.63 0.364-0.783 0.599v4.9zM119.793 21.091c-1.147 0-2.094-0.358-2.842-1.075s-1.121-1.659-1.121-2.826c0-1.096 0.358-2.017 1.075-2.765 0.727-0.748 1.649-1.121 2.765-1.121 1.106 0 2.002 0.379 2.688 1.137 0.686 0.748 1.029 1.731 1.029 2.949v0.43h-5.514c0.061 0.492 0.282 0.901 0.66 1.229s0.87 0.492 1.475 0.492c0.328 0 0.681-0.067 1.060-0.2 0.389-0.133 0.696-0.312 0.922-0.538l0.86 1.26c-0.748 0.686-1.766 1.029-3.057 1.029zM121.498 16.498c-0.031-0.42-0.2-0.799-0.507-1.137-0.297-0.338-0.737-0.507-1.321-0.507-0.553 0-0.983 0.169-1.29 0.507-0.307 0.328-0.486 0.707-0.538 1.137h3.656zM126.61 20.707c-0.246 0.246-0.538 0.369-0.876 0.369s-0.63-0.123-0.876-0.369c-0.246-0.246-0.369-0.538-0.369-0.876s0.123-0.63 0.369-0.876c0.246-0.246 0.538-0.369 0.876-0.369s0.63 0.123 0.876 0.369c0.246 0.246 0.369 0.538 0.369 0.876s-0.123 0.63-0.369 0.876zM130.734 21.091c-0.686 0-1.208-0.174-1.567-0.522s-0.538-0.85-0.538-1.505v-3.871h-1.229v-1.705h1.229v-2.028h1.966v2.028h1.505v1.705h-1.505v3.348c0 0.236 0.061 0.43 0.184 0.584s0.287 0.23 0.492 0.23c0.307 0 0.532-0.072 0.676-0.215l0.415 1.475c-0.358 0.317-0.901 0.476-1.628 0.476zM136.923 21.091c-1.147 0-2.094-0.358-2.842-1.075s-1.121-1.659-1.121-2.826c0-1.096 0.358-2.017 1.075-2.765 0.727-0.748 1.649-1.121 2.765-1.121 1.106 0 2.002 0.379 2.688 1.137 0.686 0.748 1.029 1.731 1.029 2.949v0.43h-5.514c0.061 0.492 0.282 0.901 0.66 1.229s0.87 0.492 1.475 0.492c0.328 0 0.681-0.067 1.060-0.2 0.389-0.133 0.696-0.312 0.922-0.538l0.86 1.26c-0.748 0.686-1.766 1.029-3.057 1.029zM138.628 16.498c-0.031-0.42-0.2-0.799-0.507-1.137-0.297-0.338-0.737-0.507-1.321-0.507-0.553 0-0.983 0.169-1.29 0.507-0.307 0.328-0.486 0.707-0.538 1.137h3.656zM144.599 21.091c-0.645 0-1.265-0.102-1.859-0.307-0.584-0.205-1.070-0.486-1.459-0.845l0.845-1.367c0.287 0.266 0.676 0.502 1.167 0.707s0.957 0.307 1.398 0.307c0.41 0 0.717-0.072 0.922-0.215 0.215-0.143 0.323-0.338 0.323-0.584 0-0.184-0.113-0.333-0.338-0.445-0.215-0.123-0.486-0.21-0.814-0.261-0.317-0.051-0.671-0.128-1.060-0.23-0.379-0.102-0.732-0.225-1.060-0.369-0.317-0.143-0.589-0.369-0.814-0.676-0.215-0.317-0.323-0.707-0.323-1.167 0-0.655 0.271-1.208 0.814-1.659s1.285-0.676 2.227-0.676c1.147 0 2.145 0.338 2.995 1.014l-0.783 1.336c-0.236-0.246-0.553-0.451-0.952-0.614-0.389-0.164-0.804-0.246-1.244-0.246-0.348 0-0.63 0.072-0.845 0.215-0.215 0.133-0.323 0.307-0.323 0.522 0 0.164 0.108 0.302 0.323 0.415 0.215 0.102 0.486 0.179 0.814 0.23s0.681 0.133 1.060 0.246c0.379 0.102 0.732 0.23 1.060 0.384 0.328 0.143 0.599 0.379 0.814 0.707s0.323 0.727 0.323 1.198c0 0.696-0.287 1.27-0.86 1.72-0.563 0.44-1.347 0.66-2.35 0.66zM151.734 21.091c-0.686 0-1.208-0.174-1.567-0.522s-0.538-0.85-0.538-1.505v-3.871h-1.229v-1.705h1.229v-2.028h1.966v2.028h1.505v1.705h-1.505v3.348c0 0.236 0.061 0.43 0.184 0.584s0.287 0.23 0.492 0.23c0.307 0 0.532-0.072 0.676-0.215l0.415 1.475c-0.358 0.317-0.901 0.476-1.628 0.476z"></path>
</svg>
